<svg width="28" height="28" viewBox="0 0 28 28" fill="none" xmlns="http://www.w3.org/2000/svg">
<path d="M14 11.2C11.6802 11.2 9.8 13.081 9.8 15.4C9.8 17.7198 11.6802 19.6 14 19.6C16.3192 19.6 18.2 17.7198 18.2 15.4C18.2 13.081 16.3192 11.2 14 11.2ZM25.2 6.99999H21.84C21.378 6.99999 20.8802 6.64159 20.7343 6.20311L19.8657 3.59659C19.7193 3.15839 19.222 2.79999 18.76 2.79999H9.24C8.778 2.79999 8.28016 3.15839 8.13428 3.59687L7.26572 6.20339C7.11928 6.64159 6.622 6.99999 6.16 6.99999H2.8C1.26 6.99999 0 8.25999 0 9.79999V22.4C0 23.94 1.26 25.2 2.8 25.2H25.2C26.74 25.2 28 23.94 28 22.4V9.79999C28 8.25999 26.74 6.99999 25.2 6.99999ZM14 22.4C10.134 22.4 7 19.2659 7 15.4C7 11.5343 10.134 8.39999 14 8.39999C17.8654 8.39999 21 11.5343 21 15.4C21 19.2659 17.8654 22.4 14 22.4ZM24.22 11.758C23.679 11.758 23.24 11.3195 23.24 10.778C23.24 10.2371 23.679 9.79803 24.22 9.79803C24.7615 9.79803 25.2 10.2371 25.2 10.778C25.2 11.3195 24.7612 11.758 24.22 11.758Z" fill="white"/>
</svg>
