<svg width="88" height="72" viewBox="0 0 88 72" fill="none" xmlns="http://www.w3.org/2000/svg">
    <path
        d="M44 27.2C36.7092 27.2 30.8 33.1118 30.8 40.4C30.8 47.6908 36.7092 53.6 44 53.6C51.289 53.6 57.2 47.6908 57.2 40.4C57.2 33.1118 51.289 27.2 44 27.2ZM79.2 14H68.64C67.188 14 65.6234 12.8736 65.1649 11.4955L62.4351 3.3036C61.9749 1.9264 60.412 0.800003 58.96 0.800003H29.04C27.588 0.800003 26.0234 1.9264 25.5649 3.30448L22.8351 11.4964C22.3749 12.8736 20.812 14 19.36 14H8.8C3.96 14 0 17.96 0 22.8V62.4C0 67.24 3.96 71.2 8.8 71.2H79.2C84.04 71.2 88 67.24 88 62.4V22.8C88 17.96 84.04 14 79.2 14ZM44 62.4C31.8498 62.4 22 52.5502 22 40.4C22 28.2507 31.8498 18.4 44 18.4C56.1484 18.4 66 28.2507 66 40.4C66 52.5502 56.1484 62.4 44 62.4ZM76.12 28.9538C74.4198 28.9538 73.04 27.5758 73.04 25.8738C73.04 24.1737 74.4198 22.7938 76.12 22.7938C77.8219 22.7938 79.2 24.1737 79.2 25.8738C79.2 27.5758 77.821 28.9538 76.12 28.9538Z"
        fill="black" fill-opacity="0.13" />
</svg>
