<svg width="292" height="158" viewBox="0 0 292 158" fill="none" xmlns="http://www.w3.org/2000/svg">
<path d="M55.0654 128H53.9844V116.126H46.7422V128H45.6611V115.203H55.0654V128ZM65.7617 123.342C65.7617 124.824 65.4336 126.002 64.7773 126.875C64.1211 127.742 63.2422 128.176 62.1406 128.176C60.8398 128.176 59.8438 127.719 59.1523 126.805V131.656H58.1064V118.49H59.082L59.1348 119.835C59.8203 118.821 60.8135 118.314 62.1143 118.314C63.251 118.314 64.1416 118.745 64.7861 119.606C65.4365 120.468 65.7617 121.663 65.7617 123.192V123.342ZM64.707 123.157C64.707 121.944 64.458 120.986 63.96 120.283C63.4619 119.58 62.7676 119.229 61.877 119.229C61.2324 119.229 60.6787 119.384 60.2158 119.694C59.7529 120.005 59.3984 120.456 59.1523 121.048V125.609C59.4043 126.154 59.7646 126.57 60.2334 126.857C60.7021 127.145 61.2559 127.288 61.8945 127.288C62.7793 127.288 63.4678 126.937 63.96 126.233C64.458 125.524 64.707 124.499 64.707 123.157ZM67.5195 123.104C67.5195 122.19 67.6953 121.367 68.0469 120.635C68.4043 119.902 68.9053 119.334 69.5498 118.93C70.2002 118.52 70.9355 118.314 71.7559 118.314C73.0215 118.314 74.0469 118.76 74.832 119.65C75.6172 120.535 76.0098 121.71 76.0098 123.175V123.395C76.0098 124.314 75.8311 125.144 75.4736 125.882C75.1221 126.614 74.624 127.18 73.9795 127.578C73.335 127.977 72.5996 128.176 71.7734 128.176C70.5137 128.176 69.4883 127.733 68.6973 126.849C67.9121 125.958 67.5195 124.78 67.5195 123.315V123.104ZM68.5742 123.395C68.5742 124.531 68.8672 125.466 69.4531 126.198C70.0449 126.925 70.8184 127.288 71.7734 127.288C72.7227 127.288 73.4902 126.925 74.0762 126.198C74.668 125.466 74.9639 124.502 74.9639 123.307V123.104C74.9639 122.378 74.8291 121.713 74.5596 121.109C74.29 120.506 73.9121 120.04 73.4258 119.712C72.9395 119.378 72.3828 119.211 71.7559 119.211C70.8184 119.211 70.0537 119.58 69.4619 120.318C68.8701 121.051 68.5742 122.012 68.5742 123.201V123.395ZM81.7051 127.288C82.4375 127.288 83.0498 127.083 83.542 126.673C84.04 126.257 84.3096 125.721 84.3506 125.064H85.3613C85.332 125.645 85.1504 126.175 84.8164 126.655C84.4824 127.13 84.0371 127.502 83.4805 127.771C82.9297 128.041 82.3379 128.176 81.7051 128.176C80.457 128.176 79.4668 127.742 78.7344 126.875C78.0078 126.008 77.6445 124.842 77.6445 123.377V123.061C77.6445 122.123 77.8086 121.294 78.1367 120.573C78.4648 119.853 78.9336 119.296 79.543 118.903C80.1582 118.511 80.876 118.314 81.6963 118.314C82.7393 118.314 83.5977 118.625 84.2715 119.246C84.9512 119.867 85.3145 120.685 85.3613 121.698H84.3506C84.3037 120.954 84.0342 120.354 83.542 119.896C83.0557 119.439 82.4404 119.211 81.6963 119.211C80.7471 119.211 80.0088 119.554 79.4814 120.239C78.96 120.925 78.6992 121.886 78.6992 123.122V123.43C78.6992 124.643 78.96 125.589 79.4814 126.269C80.0088 126.948 80.75 127.288 81.7051 127.288ZM92.7354 126.576L96.5146 118.49H97.8154V128H96.7607V120.195L93.1045 128H92.3574L88.6309 120.02V128H87.585V118.49H88.9648L92.7354 126.576ZM100.057 123.104C100.057 122.19 100.232 121.367 100.584 120.635C100.941 119.902 101.442 119.334 102.087 118.93C102.737 118.52 103.473 118.314 104.293 118.314C105.559 118.314 106.584 118.76 107.369 119.65C108.154 120.535 108.547 121.71 108.547 123.175V123.395C108.547 124.314 108.368 125.144 108.011 125.882C107.659 126.614 107.161 127.18 106.517 127.578C105.872 127.977 105.137 128.176 104.311 128.176C103.051 128.176 102.025 127.733 101.234 126.849C100.449 125.958 100.057 124.78 100.057 123.315V123.104ZM101.111 123.395C101.111 124.531 101.404 125.466 101.99 126.198C102.582 126.925 103.355 127.288 104.311 127.288C105.26 127.288 106.027 126.925 106.613 126.198C107.205 125.466 107.501 124.502 107.501 123.307V123.104C107.501 122.378 107.366 121.713 107.097 121.109C106.827 120.506 106.449 120.04 105.963 119.712C105.477 119.378 104.92 119.211 104.293 119.211C103.355 119.211 102.591 119.58 101.999 120.318C101.407 121.051 101.111 122.012 101.111 123.201V123.395ZM117.362 119.387H113.899V128H112.845V119.387H109.514V118.49H117.362V119.387ZM126.74 123.342C126.74 124.824 126.412 126.002 125.756 126.875C125.1 127.742 124.221 128.176 123.119 128.176C121.818 128.176 120.822 127.719 120.131 126.805V131.656H119.085V118.49H120.061L120.113 119.835C120.799 118.821 121.792 118.314 123.093 118.314C124.229 118.314 125.12 118.745 125.765 119.606C126.415 120.468 126.74 121.663 126.74 123.192V123.342ZM125.686 123.157C125.686 121.944 125.437 120.986 124.938 120.283C124.44 119.58 123.746 119.229 122.855 119.229C122.211 119.229 121.657 119.384 121.194 119.694C120.731 120.005 120.377 120.456 120.131 121.048V125.609C120.383 126.154 120.743 126.57 121.212 126.857C121.681 127.145 122.234 127.288 122.873 127.288C123.758 127.288 124.446 126.937 124.938 126.233C125.437 125.524 125.686 124.499 125.686 123.157ZM135.327 118.49H136.382V128H135.327V120.187L130.194 128H129.148V118.49H130.194V126.312L135.327 118.49ZM146.032 119.387H142.569V128H141.515V119.387H138.184V118.49H146.032V119.387ZM150.743 128.176C149.935 128.176 149.202 127.977 148.546 127.578C147.896 127.18 147.389 126.626 147.025 125.917C146.662 125.202 146.48 124.402 146.48 123.518V123.14C146.48 122.226 146.656 121.402 147.008 120.67C147.365 119.938 147.86 119.363 148.493 118.947C149.126 118.525 149.812 118.314 150.55 118.314C151.704 118.314 152.618 118.71 153.292 119.501C153.972 120.286 154.312 121.361 154.312 122.727V123.315H147.526V123.518C147.526 124.596 147.834 125.495 148.449 126.216C149.07 126.931 149.85 127.288 150.787 127.288C151.35 127.288 151.845 127.186 152.272 126.98C152.706 126.775 153.099 126.447 153.45 125.996L154.109 126.497C153.336 127.616 152.214 128.176 150.743 128.176ZM150.55 119.211C149.759 119.211 149.091 119.501 148.546 120.081C148.007 120.661 147.679 121.44 147.562 122.419H153.266V122.305C153.236 121.391 152.976 120.646 152.483 120.072C151.991 119.498 151.347 119.211 150.55 119.211ZM160.851 128V118.49H164.34C165.547 118.49 166.473 118.707 167.117 119.141C167.762 119.568 168.084 120.198 168.084 121.03C168.084 121.505 167.94 121.93 167.653 122.305C167.366 122.674 166.947 122.943 166.396 123.113C167.018 123.23 167.516 123.497 167.891 123.913C168.271 124.329 168.462 124.812 168.462 125.363C168.462 126.201 168.151 126.852 167.53 127.314C166.915 127.771 166.042 128 164.911 128H160.851ZM161.896 123.623V127.121H164.946C165.737 127.121 166.347 126.969 166.774 126.664C167.202 126.359 167.416 125.92 167.416 125.346C167.416 124.818 167.202 124.399 166.774 124.089C166.347 123.778 165.737 123.623 164.946 123.623H161.896ZM161.896 122.744H164.56C166.212 122.721 167.038 122.158 167.038 121.057C167.038 120.477 166.81 120.055 166.353 119.791C165.901 119.521 165.23 119.387 164.34 119.387H161.896V122.744ZM176.812 128C176.706 127.701 176.639 127.259 176.609 126.673C176.24 127.153 175.769 127.525 175.194 127.789C174.626 128.047 174.022 128.176 173.384 128.176C172.47 128.176 171.729 127.921 171.16 127.411C170.598 126.901 170.316 126.257 170.316 125.478C170.316 124.552 170.7 123.819 171.468 123.28C172.241 122.741 173.316 122.472 174.693 122.472H176.601V121.391C176.601 120.711 176.39 120.178 175.968 119.791C175.552 119.398 174.942 119.202 174.14 119.202C173.407 119.202 172.801 119.39 172.32 119.765C171.84 120.14 171.6 120.591 171.6 121.118L170.545 121.109C170.545 120.354 170.896 119.7 171.6 119.149C172.303 118.593 173.167 118.314 174.192 118.314C175.253 118.314 176.088 118.581 176.697 119.114C177.312 119.642 177.629 120.38 177.646 121.329V125.829C177.646 126.749 177.743 127.438 177.937 127.895V128H176.812ZM173.507 127.244C174.21 127.244 174.837 127.074 175.388 126.734C175.944 126.395 176.349 125.94 176.601 125.372V123.28H174.72C173.671 123.292 172.851 123.485 172.259 123.86C171.667 124.229 171.371 124.739 171.371 125.39C171.371 125.923 171.567 126.365 171.96 126.717C172.358 127.068 172.874 127.244 173.507 127.244ZM181.584 118.49V127.112H185.812V118.49H186.866V127.112H191.059V118.49H192.113V128H180.529V118.49H181.584ZM198.547 123.104C198.547 122.19 198.723 121.367 199.074 120.635C199.432 119.902 199.933 119.334 200.577 118.93C201.228 118.52 201.963 118.314 202.783 118.314C204.049 118.314 205.074 118.76 205.859 119.65C206.645 120.535 207.037 121.71 207.037 123.175V123.395C207.037 124.314 206.858 125.144 206.501 125.882C206.149 126.614 205.651 127.18 205.007 127.578C204.362 127.977 203.627 128.176 202.801 128.176C201.541 128.176 200.516 127.733 199.725 126.849C198.939 125.958 198.547 124.78 198.547 123.315V123.104ZM199.602 123.395C199.602 124.531 199.895 125.466 200.48 126.198C201.072 126.925 201.846 127.288 202.801 127.288C203.75 127.288 204.518 126.925 205.104 126.198C205.695 125.466 205.991 124.502 205.991 123.307V123.104C205.991 122.378 205.856 121.713 205.587 121.109C205.317 120.506 204.939 120.04 204.453 119.712C203.967 119.378 203.41 119.211 202.783 119.211C201.846 119.211 201.081 119.58 200.489 120.318C199.897 121.051 199.602 122.012 199.602 123.201V123.395ZM215.853 119.387H212.39V128H211.335V119.387H208.004V118.49H215.853V119.387ZM224.352 128H223.297V124.001C222.43 124.317 221.601 124.476 220.81 124.476C219.55 124.476 218.636 124.2 218.067 123.649C217.499 123.093 217.203 122.229 217.18 121.057V118.49H218.226V121.004C218.237 121.912 218.437 122.568 218.823 122.973C219.216 123.371 219.878 123.57 220.81 123.57C221.659 123.547 222.488 123.395 223.297 123.113V118.49H224.352V128ZM230.847 128.176C230.038 128.176 229.306 127.977 228.649 127.578C227.999 127.18 227.492 126.626 227.129 125.917C226.766 125.202 226.584 124.402 226.584 123.518V123.14C226.584 122.226 226.76 121.402 227.111 120.67C227.469 119.938 227.964 119.363 228.597 118.947C229.229 118.525 229.915 118.314 230.653 118.314C231.808 118.314 232.722 118.71 233.396 119.501C234.075 120.286 234.415 121.361 234.415 122.727V123.315H227.63V123.518C227.63 124.596 227.938 125.495 228.553 126.216C229.174 126.931 229.953 127.288 230.891 127.288C231.453 127.288 231.948 127.186 232.376 126.98C232.81 126.775 233.202 126.447 233.554 125.996L234.213 126.497C233.439 127.616 232.317 128.176 230.847 128.176ZM230.653 119.211C229.862 119.211 229.194 119.501 228.649 120.081C228.11 120.661 227.782 121.44 227.665 122.419H233.369V122.305C233.34 121.391 233.079 120.646 232.587 120.072C232.095 119.498 231.45 119.211 230.653 119.211ZM243.187 119.387H239.724V128H238.669V119.387H235.338V118.49H243.187V119.387Z" fill="black"/>
<path d="M147 58.2C139.709 58.2 133.8 64.1118 133.8 71.4C133.8 78.6908 139.709 84.6 147 84.6C154.289 84.6 160.2 78.6908 160.2 71.4C160.2 64.1118 154.289 58.2 147 58.2ZM182.2 45H171.64C170.188 45 168.623 43.8736 168.165 42.4955L165.435 34.3036C164.975 32.9264 163.412 31.8 161.96 31.8H132.04C130.588 31.8 129.023 32.9264 128.565 34.3045L125.835 42.4964C125.375 43.8736 123.812 45 122.36 45H111.8C106.96 45 103 48.96 103 53.8V93.4C103 98.24 106.96 102.2 111.8 102.2H182.2C187.04 102.2 191 98.24 191 93.4V53.8C191 48.96 187.04 45 182.2 45ZM147 93.4C134.85 93.4 125 83.5502 125 71.4C125 59.2507 134.85 49.4 147 49.4C159.148 49.4 169 59.2507 169 71.4C169 83.5502 159.148 93.4 147 93.4ZM179.12 59.9538C177.42 59.9538 176.04 58.5758 176.04 56.8738C176.04 55.1737 177.42 53.7938 179.12 53.7938C180.822 53.7938 182.2 55.1737 182.2 56.8738C182.2 58.5758 180.821 59.9538 179.12 59.9538Z" fill="black" fill-opacity="0.13"/>
<rect x="0.5" y="0.5" width="291" height="157" stroke="black" stroke-opacity="0.46" stroke-dasharray="5 5"/>
</svg>
