<svg width="166" height="189" viewBox="0 0 166 189" fill="none" xmlns="http://www.w3.org/2000/svg">
    <path
        d="M84 50.4C73.5609 50.4 65.1 58.8647 65.1 69.3C65.1 79.7391 73.5609 88.2 84 88.2C94.4366 88.2 102.9 79.7391 102.9 69.3C102.9 58.8647 94.4366 50.4 84 50.4ZM134.4 31.5H119.28C117.201 31.5 114.961 29.8872 114.304 27.914L110.396 16.1847C109.737 14.2128 107.499 12.6 105.42 12.6H62.58C60.501 12.6 58.2607 14.2128 57.6043 16.186L53.6957 27.9153C53.0368 29.8872 50.799 31.5 48.72 31.5H33.6C26.67 31.5 21 37.17 21 44.1V100.8C21 107.73 26.67 113.4 33.6 113.4H134.4C141.33 113.4 147 107.73 147 100.8V44.1C147 37.17 141.33 31.5 134.4 31.5ZM84 100.8C66.6032 100.8 52.5 86.6968 52.5 69.3C52.5 51.9044 66.6032 37.8 84 37.8C101.394 37.8 115.5 51.9044 115.5 69.3C115.5 86.6968 101.394 100.8 84 100.8ZM129.99 52.9112C127.556 52.9112 125.58 50.938 125.58 48.5012C125.58 46.0669 127.556 44.0912 129.99 44.0912C132.427 44.0912 134.4 46.0669 134.4 48.5012C134.4 50.938 132.426 52.9112 129.99 52.9112Z"
        fill="white" />
    <path
        d="M11.6875 178V179H12.6875V178H11.6875ZM5.39746 178H4.39746V179H5.39746V178ZM5.39746 159.056H6.39746V158.056H5.39746V159.056ZM1.50098 159.056H0.500977V160.056H1.50098V159.056ZM1.50098 156.569V155.569H0.500977V156.569H1.50098ZM5.39746 156.569V157.569H6.39746V156.569H5.39746ZM5.39746 148.684V147.684H4.39746V148.684H5.39746ZM11.6875 148.684H12.6875V147.684H11.6875V148.684ZM11.6875 156.569H10.6875V157.569H11.6875V156.569ZM18.1816 156.569H19.1816V155.569H18.1816V156.569ZM18.1816 159.056V160.056H19.1816V159.056H18.1816ZM11.6875 159.056V158.056H10.6875V159.056H11.6875ZM11.6875 177H5.39746V179H11.6875V177ZM6.39746 178V159.056H4.39746V178H6.39746ZM5.39746 158.056H1.50098V160.056H5.39746V158.056ZM2.50098 159.056V156.569H0.500977V159.056H2.50098ZM1.50098 157.569H5.39746V155.569H1.50098V157.569ZM6.39746 156.569V148.684H4.39746V156.569H6.39746ZM5.39746 149.684H11.6875V147.684H5.39746V149.684ZM10.6875 148.684V156.569H12.6875V148.684H10.6875ZM11.6875 157.569H18.1816V155.569H11.6875V157.569ZM17.1816 156.569V159.056H19.1816V156.569H17.1816ZM18.1816 158.056H11.6875V160.056H18.1816V158.056ZM10.6875 159.056V178H12.6875V159.056H10.6875ZM25.2881 167.832L24.2958 167.956L24.3829 168.653L25.0678 168.807L25.2881 167.832ZM32.1719 168.166L32.3814 169.144L32.3942 169.141L32.1719 168.166ZM33.9902 167.387L34.5677 168.203L34.5715 168.2L33.9902 167.387ZM35.3633 161.653L36.3139 161.343L35.3633 161.653ZM34.4727 160.095L33.7241 160.758L33.7293 160.764L33.7346 160.769L34.4727 160.095ZM33.0439 159.093L32.6452 160.01L32.6537 160.014L32.6622 160.017L33.0439 159.093ZM29.1475 159.111L28.7322 158.202L28.7246 158.205L29.1475 159.111ZM27.6631 160.169L26.9461 159.472L26.9458 159.472L27.6631 160.169ZM26.5684 161.69L25.6855 161.221L25.6816 161.228L25.6778 161.236L26.5684 161.69ZM40.3174 165.958L41.24 166.344L41.2424 166.338L40.3174 165.958ZM39.1484 167.758L38.4242 167.068L38.4156 167.077L39.1484 167.758ZM35.4004 169.966L35.6922 170.922L35.6996 170.92L35.7069 170.918L35.4004 169.966ZM33.1367 170.448L33.0107 169.456L33.0087 169.456L33.1367 170.448ZM28.1455 170.411L27.9965 171.4L28.0098 171.402L28.1455 170.411ZM25.4736 169.78L25.7818 168.829L24.2168 168.322L24.4872 169.945L25.4736 169.78ZM26.123 172.118L25.1946 172.49L25.1968 172.495L26.123 172.118ZM27.3105 174.048L26.5631 174.712L26.5706 174.721L27.3105 174.048ZM29.1289 175.347L28.7198 176.259L28.7256 176.262L29.1289 175.347ZM33.582 175.532L33.2658 174.584L33.582 175.532ZM36.5137 173.417L35.7233 172.804L35.7184 172.811L35.7137 172.817L36.5137 173.417ZM37.4414 171.766L37.7883 170.828L36.865 170.486L36.509 171.404L37.4414 171.766ZM40.1504 172.768L41.0731 173.153L41.4749 172.191L40.4973 171.83L40.1504 172.768ZM38.4619 175.31L37.7548 174.602L38.4619 175.31ZM36.0498 177.072L36.5069 177.962L36.5115 177.959L36.0498 177.072ZM33.1924 178.093L32.978 177.116L32.9755 177.117L33.1924 178.093ZM25.6777 177.61L25.3049 178.538L25.3121 178.541L25.6777 177.61ZM22.0967 159.186L21.394 158.474L22.0967 159.186ZM25.6777 156.885L26.0434 157.816L26.0506 157.813L25.6777 156.885ZM35.0479 156.755L34.7453 157.708L34.7522 157.71L34.7591 157.712L35.0479 156.755ZM39.0557 159.111L38.3092 159.777L38.3168 159.785L38.3246 159.794L39.0557 159.111ZM40.2803 161.06L39.3518 161.431L39.3545 161.438L39.3572 161.444L40.2803 161.06ZM25.0678 168.807C25.8647 168.987 26.6625 169.129 27.4609 169.232L27.7168 167.248C26.9814 167.154 26.2453 167.023 25.5083 166.857L25.0678 168.807ZM27.4609 169.232C28.2706 169.336 29.0865 169.389 29.9082 169.389V167.389C29.1714 167.389 28.441 167.342 27.7168 167.248L27.4609 169.232ZM29.9082 169.389C30.7846 169.389 31.6103 169.309 32.3814 169.144L31.9623 167.188C31.348 167.32 30.6646 167.389 29.9082 167.389V169.389ZM32.3942 169.141C33.2062 168.956 33.9376 168.649 34.5677 168.203L33.4128 166.57C33.0285 166.842 32.5477 167.055 31.9495 167.191L32.3942 169.141ZM34.5715 168.2C35.2337 167.727 35.7474 167.107 36.1129 166.361L34.3168 165.481C34.0886 165.947 33.7858 166.304 33.409 166.573L34.5715 168.2ZM36.1129 166.361C36.4955 165.58 36.6602 164.664 36.6602 163.657H34.6602C34.6602 164.457 34.5279 165.05 34.3168 165.481L36.1129 166.361ZM36.6602 163.657C36.6602 162.837 36.5489 162.063 36.3139 161.343L34.4127 161.964C34.5735 162.456 34.6602 163.018 34.6602 163.657H36.6602ZM36.3139 161.343C36.0757 160.614 35.7106 159.967 35.2107 159.42L33.7346 160.769C34.0264 161.089 34.255 161.481 34.4127 161.964L36.3139 161.343ZM35.2212 159.432C34.7305 158.878 34.126 158.458 33.4257 158.169L32.6622 160.017C33.0999 160.198 33.4479 160.446 33.7241 160.758L35.2212 159.432ZM33.4427 158.176C32.7238 157.863 31.9214 157.722 31.0586 157.722V159.722C31.7049 159.722 32.2261 159.828 32.6452 160.01L33.4427 158.176ZM31.0586 157.722C30.2285 157.722 29.4472 157.875 28.7322 158.202L29.5628 160.021C29.9857 159.828 30.4785 159.722 31.0586 159.722V157.722ZM28.7246 158.205C28.0568 158.517 27.4626 158.941 26.9461 159.472L28.3801 160.866C28.7294 160.507 29.1249 160.225 29.5703 160.018L28.7246 158.205ZM26.9458 159.472C26.4539 159.978 26.035 160.564 25.6855 161.221L27.4512 162.16C27.7202 161.654 28.0311 161.225 28.3804 160.866L26.9458 159.472ZM25.6778 161.236C25.3551 161.868 25.0865 162.526 24.872 163.209L26.7803 163.808C26.9617 163.23 27.1879 162.676 27.459 162.145L25.6778 161.236ZM24.872 163.209C24.6574 163.893 24.5027 164.586 24.4084 165.287L26.3905 165.553C26.4693 164.967 26.5991 164.386 26.7803 163.808L24.872 163.209ZM24.4084 165.287C24.3166 165.968 24.2695 166.619 24.2695 167.238H26.2695C26.2695 166.72 26.309 166.158 26.3905 165.553L24.4084 165.287ZM24.2695 167.238C24.2695 167.238 24.2695 167.239 24.2695 167.239C24.2695 167.239 24.2695 167.239 24.2695 167.239C24.2695 167.24 24.2695 167.24 24.2695 167.24C24.2695 167.24 24.2695 167.24 24.2695 167.241C24.2695 167.241 24.2695 167.241 24.2695 167.241C24.2695 167.241 24.2695 167.242 24.2695 167.242C24.2695 167.242 24.2695 167.242 24.2695 167.242C24.2695 167.243 24.2695 167.243 24.2695 167.243C24.2695 167.243 24.2695 167.243 24.2695 167.243C24.2695 167.244 24.2695 167.244 24.2695 167.244C24.2695 167.244 24.2695 167.244 24.2695 167.245C24.2695 167.245 24.2695 167.245 24.2695 167.245C24.2695 167.245 24.2695 167.246 24.2695 167.246C24.2695 167.246 24.2695 167.246 24.2695 167.246C24.2695 167.247 24.2695 167.247 24.2695 167.247C24.2695 167.247 24.2695 167.247 24.2695 167.248C24.2695 167.248 24.2695 167.248 24.2695 167.248C24.2695 167.248 24.2695 167.249 24.2695 167.249C24.2695 167.249 24.2695 167.249 24.2695 167.249C24.2695 167.249 24.2695 167.25 24.2695 167.25C24.2695 167.25 24.2695 167.25 24.2695 167.25C24.2695 167.251 24.2695 167.251 24.2695 167.251C24.2695 167.251 24.2695 167.251 24.2695 167.252C24.2695 167.252 24.2695 167.252 24.2695 167.252C24.2695 167.252 24.2695 167.253 24.2695 167.253C24.2695 167.253 24.2695 167.253 24.2695 167.253C24.2695 167.254 24.2695 167.254 24.2695 167.254C24.2695 167.254 24.2695 167.254 24.2695 167.255C24.2695 167.255 24.2695 167.255 24.2695 167.255C24.2695 167.255 24.2695 167.255 24.2695 167.256C24.2695 167.256 24.2695 167.256 24.2695 167.256C24.2695 167.256 24.2695 167.257 24.2695 167.257C24.2695 167.257 24.2695 167.257 24.2695 167.257C24.2695 167.258 24.2695 167.258 24.2695 167.258C24.2695 167.258 24.2695 167.258 24.2695 167.259C24.2695 167.259 24.2695 167.259 24.2695 167.259C24.2695 167.259 24.2695 167.26 24.2695 167.26C24.2695 167.26 24.2695 167.26 24.2695 167.26C24.2695 167.261 24.2695 167.261 24.2695 167.261C24.2695 167.261 24.2695 167.261 24.2695 167.261C24.2695 167.262 24.2695 167.262 24.2695 167.262C24.2695 167.262 24.2695 167.262 24.2695 167.263C24.2695 167.263 24.2695 167.263 24.2695 167.263C24.2695 167.263 24.2695 167.264 24.2695 167.264C24.2695 167.264 24.2695 167.264 24.2695 167.264C24.2695 167.265 24.2695 167.265 24.2695 167.265C24.2695 167.265 24.2695 167.265 24.2695 167.266C24.2695 167.266 24.2695 167.266 24.2695 167.266C24.2695 167.266 24.2695 167.267 24.2695 167.267C24.2695 167.267 24.2695 167.267 24.2695 167.267C24.2695 167.267 24.2695 167.268 24.2695 167.268C24.2695 167.268 24.2695 167.268 24.2695 167.268C24.2695 167.269 24.2695 167.269 24.2695 167.269C24.2695 167.269 24.2695 167.269 24.2695 167.27C24.2695 167.27 24.2695 167.27 24.2695 167.27C24.2695 167.27 24.2695 167.271 24.2695 167.271C24.2695 167.271 24.2695 167.271 24.2695 167.271C24.2695 167.272 24.2695 167.272 24.2695 167.272C24.2695 167.272 24.2695 167.272 24.2695 167.272C24.2695 167.273 24.2695 167.273 24.2695 167.273C24.2695 167.273 24.2695 167.273 24.2695 167.274C24.2695 167.274 24.2695 167.274 24.2695 167.274C24.2695 167.274 24.2695 167.275 24.2695 167.275C24.2695 167.275 24.2695 167.275 24.2695 167.275C24.2695 167.276 24.2695 167.276 24.2695 167.276C24.2695 167.276 24.2695 167.276 24.2695 167.277C24.2695 167.277 24.2695 167.277 24.2695 167.277C24.2695 167.277 24.2695 167.278 24.2695 167.278C24.2695 167.278 24.2695 167.278 24.2695 167.278C24.2695 167.278 24.2695 167.279 24.2695 167.279C24.2695 167.279 24.2695 167.279 24.2695 167.279C24.2695 167.28 24.2695 167.28 24.2695 167.28C24.2695 167.28 24.2695 167.28 24.2695 167.281C24.2695 167.281 24.2695 167.281 24.2695 167.281C24.2695 167.281 24.2695 167.282 24.2695 167.282C24.2695 167.282 24.2695 167.282 24.2695 167.282C24.2695 167.283 24.2695 167.283 24.2695 167.283C24.2695 167.283 24.2695 167.283 24.2695 167.284C24.2695 167.284 24.2695 167.284 24.2695 167.284C24.2695 167.284 24.2695 167.284 24.2695 167.285C24.2695 167.285 24.2695 167.285 24.2695 167.285C24.2695 167.285 24.2695 167.286 24.2695 167.286C24.2695 167.286 24.2695 167.286 24.2695 167.286C24.2695 167.287 24.2695 167.287 24.2695 167.287C24.2695 167.287 24.2695 167.287 24.2695 167.288C24.2695 167.288 24.2695 167.288 24.2695 167.288C24.2695 167.288 24.2695 167.289 24.2695 167.289C24.2695 167.289 24.2695 167.289 24.2695 167.289C24.2695 167.289 24.2695 167.29 24.2695 167.29C24.2695 167.29 24.2695 167.29 24.2695 167.29C24.2695 167.291 24.2695 167.291 24.2695 167.291C24.2695 167.291 24.2695 167.291 24.2695 167.292C24.2695 167.292 24.2695 167.292 24.2695 167.292C24.2695 167.292 24.2695 167.293 24.2695 167.293C24.2695 167.293 24.2695 167.293 24.2695 167.293C24.2695 167.294 24.2695 167.294 24.2695 167.294C24.2695 167.294 24.2695 167.294 24.2695 167.295C24.2695 167.295 24.2695 167.295 24.2695 167.295C24.2695 167.295 24.2695 167.295 24.2695 167.296C24.2695 167.296 24.2695 167.296 24.2695 167.296C24.2695 167.296 24.2695 167.297 24.2695 167.297C24.2695 167.297 24.2695 167.297 24.2695 167.297C24.2695 167.298 24.2695 167.298 24.2695 167.298C24.2695 167.298 24.2695 167.298 24.2695 167.299C24.2695 167.299 24.2695 167.299 24.2695 167.299C24.2695 167.299 24.2695 167.3 24.2695 167.3C24.2695 167.3 24.2695 167.3 24.2695 167.3C24.2695 167.301 24.2695 167.301 24.2695 167.301C24.2695 167.301 24.2695 167.301 24.2695 167.301C24.2695 167.302 24.2695 167.302 24.2695 167.302C24.2695 167.302 24.2695 167.302 24.2695 167.303C24.2695 167.303 24.2695 167.303 24.2695 167.303C24.2695 167.303 24.2695 167.304 24.2695 167.304C24.2695 167.304 24.2695 167.304 24.2695 167.304C24.2695 167.305 24.2695 167.305 24.2695 167.305C24.2695 167.305 24.2695 167.305 24.2695 167.306C24.2695 167.306 24.2695 167.306 24.2695 167.306C24.2695 167.306 24.2695 167.307 24.2695 167.307C24.2695 167.307 24.2695 167.307 24.2695 167.307C24.2695 167.307 24.2695 167.308 24.2695 167.308C24.2695 167.308 24.2695 167.308 24.2695 167.308C24.2695 167.309 24.2695 167.309 24.2695 167.309C24.2695 167.309 24.2695 167.309 24.2695 167.31C24.2695 167.31 24.2695 167.31 24.2695 167.31C24.2695 167.31 24.2695 167.311 24.2695 167.311C24.2695 167.311 24.2695 167.311 24.2695 167.311C24.2695 167.312 24.2695 167.312 24.2695 167.312C24.2695 167.312 24.2695 167.312 24.2695 167.312C24.2695 167.313 24.2695 167.313 24.2695 167.313C24.2695 167.313 24.2695 167.313 24.2695 167.314C24.2695 167.314 24.2695 167.314 24.2695 167.314C24.2695 167.314 24.2695 167.315 24.2695 167.315C24.2695 167.315 24.2695 167.315 24.2695 167.315C24.2695 167.316 24.2695 167.316 24.2695 167.316C24.2695 167.316 24.2695 167.316 24.2695 167.317C24.2695 167.317 24.2695 167.317 24.2695 167.317C24.2695 167.317 24.2695 167.318 24.2695 167.318C24.2695 167.318 24.2695 167.318 24.2695 167.318C24.2695 167.318 24.2695 167.319 24.2695 167.319C24.2695 167.319 24.2695 167.319 24.2695 167.319C24.2695 167.32 24.2695 167.32 24.2695 167.32C24.2695 167.32 24.2695 167.32 24.2695 167.321C24.2695 167.321 24.2695 167.321 24.2695 167.321C24.2695 167.321 24.2695 167.322 24.2695 167.322C24.2695 167.322 24.2695 167.322 24.2695 167.322C24.2695 167.323 24.2695 167.323 24.2695 167.323C24.2695 167.323 24.2695 167.323 24.2695 167.324C24.2695 167.324 24.2695 167.324 24.2695 167.324C24.2695 167.324 24.2695 167.324 24.2695 167.325C24.2695 167.325 24.2695 167.325 24.2695 167.325C24.2695 167.325 24.2695 167.326 24.2695 167.326C24.2695 167.326 24.2695 167.326 24.2695 167.326C24.2695 167.327 24.2695 167.327 24.2695 167.327C24.2695 167.327 24.2695 167.327 24.2695 167.328C24.2695 167.328 24.2695 167.328 24.2695 167.328C24.2695 167.328 24.2695 167.329 24.2695 167.329C24.2695 167.329 24.2695 167.329 24.2695 167.329C24.2695 167.33 24.2695 167.33 24.2695 167.33C24.2695 167.33 24.2695 167.33 24.2695 167.33C24.2695 167.331 24.2695 167.331 24.2695 167.331C24.2695 167.331 24.2695 167.331 24.2695 167.332C24.2695 167.332 24.2695 167.332 24.2695 167.332C24.2695 167.332 24.2695 167.333 24.2695 167.333C24.2695 167.333 24.2695 167.333 24.2695 167.333C24.2695 167.334 24.2695 167.334 24.2695 167.334C24.2695 167.334 24.2695 167.334 24.2695 167.335C24.2695 167.335 24.2695 167.335 24.2695 167.335C24.2695 167.335 24.2695 167.336 24.2695 167.336C24.2695 167.336 24.2695 167.336 24.2695 167.336C24.2695 167.336 24.2695 167.337 24.2695 167.337C24.2695 167.337 24.2695 167.337 24.2695 167.337C24.2695 167.338 24.2695 167.338 24.2695 167.338C24.2695 167.338 24.2695 167.338 24.2695 167.339C24.2695 167.339 24.2695 167.339 24.2695 167.339C24.2695 167.339 24.2695 167.34 24.2695 167.34C24.2695 167.34 24.2695 167.34 24.2695 167.34C24.2695 167.341 24.2695 167.341 24.2695 167.341C24.2695 167.341 24.2695 167.341 24.2695 167.341C24.2695 167.342 24.2695 167.342 24.2695 167.342C24.2695 167.342 24.2695 167.342 24.2695 167.343C24.2695 167.343 24.2695 167.343 24.2695 167.343C24.2695 167.343 24.2695 167.344 24.2695 167.344C24.2695 167.344 24.2695 167.344 24.2695 167.344C24.2695 167.345 24.2695 167.345 24.2695 167.345C24.2695 167.345 24.2695 167.345 24.2695 167.346C24.2695 167.346 24.2695 167.346 24.2695 167.346C24.2695 167.346 24.2695 167.347 24.2695 167.347C24.2695 167.347 24.2695 167.347 24.2695 167.347C24.2695 167.347 24.2695 167.348 24.2695 167.348C24.2695 167.348 24.2695 167.348 24.2695 167.348C24.2695 167.349 24.2695 167.349 24.2695 167.349C24.2695 167.349 24.2695 167.349 24.2695 167.35C24.2695 167.35 24.2695 167.35 24.2695 167.35C24.2695 167.35 24.2695 167.351 24.2695 167.351C24.2695 167.351 24.2695 167.351 24.2695 167.351C24.2695 167.352 24.2695 167.352 24.2695 167.352C24.2695 167.352 24.2695 167.352 24.2695 167.353C24.2695 167.353 24.2695 167.353 24.2695 167.353C24.2695 167.353 24.2695 167.353 24.2695 167.354C24.2695 167.354 24.2695 167.354 24.2695 167.354C24.2695 167.354 24.2695 167.355 24.2695 167.355C24.2695 167.355 24.2695 167.355 24.2695 167.355C24.2695 167.356 24.2695 167.356 24.2695 167.356C24.2695 167.356 24.2695 167.356 24.2695 167.357C24.2695 167.357 24.2695 167.357 24.2695 167.357C24.2695 167.357 24.2695 167.358 24.2695 167.358C24.2695 167.358 24.2695 167.358 24.2695 167.358C24.2695 167.358 24.2695 167.359 24.2695 167.359C24.2695 167.359 24.2695 167.359 24.2695 167.359C24.2695 167.36 24.2695 167.36 24.2695 167.36C24.2695 167.36 24.2695 167.36 24.2695 167.361C24.2695 167.361 24.2695 167.361 24.2695 167.361C24.2695 167.361 24.2695 167.362 24.2695 167.362C24.2695 167.362 24.2695 167.362 24.2695 167.362C24.2695 167.363 24.2695 167.363 24.2695 167.363C24.2695 167.363 24.2695 167.363 24.2695 167.364C24.2695 167.364 24.2695 167.364 24.2695 167.364C24.2695 167.364 24.2695 167.364 24.2695 167.365C24.2695 167.365 24.2695 167.365 24.2695 167.365C24.2695 167.365 24.2695 167.366 24.2695 167.366C24.2695 167.366 24.2695 167.366 24.2695 167.366C24.2695 167.367 24.2695 167.367 24.2695 167.367C24.2695 167.367 24.2695 167.367 24.2695 167.368C24.2695 167.368 24.2695 167.368 24.2695 167.368C24.2695 167.368 24.2695 167.369 24.2695 167.369C24.2695 167.369 24.2695 167.369 24.2695 167.369C24.2695 167.37 24.2695 167.37 24.2695 167.37C24.2695 167.37 24.2695 167.37 24.2695 167.37C24.2695 167.371 24.2695 167.371 24.2695 167.371C24.2695 167.371 24.2695 167.371 24.2695 167.372C24.2695 167.372 24.2695 167.372 24.2695 167.372C24.2695 167.372 24.2695 167.373 24.2695 167.373C24.2695 167.373 24.2695 167.373 24.2695 167.373C24.2695 167.374 24.2695 167.374 24.2695 167.374C24.2695 167.374 24.2695 167.374 24.2695 167.375C24.2695 167.375 24.2695 167.375 24.2695 167.375C24.2695 167.375 24.2695 167.376 24.2695 167.376C24.2695 167.376 24.2695 167.376 24.2695 167.376C24.2695 167.376 24.2695 167.377 24.2695 167.377C24.2695 167.377 24.2695 167.377 24.2695 167.377C24.2695 167.378 24.2695 167.378 24.2695 167.378C24.2695 167.378 24.2695 167.378 24.2695 167.379C24.2695 167.379 24.2695 167.379 24.2695 167.379C24.2695 167.379 24.2695 167.38 24.2695 167.38C24.2695 167.38 24.2695 167.38 24.2695 167.38C24.2695 167.381 24.2695 167.381 24.2695 167.381C24.2695 167.381 24.2695 167.381 24.2695 167.382C24.2695 167.382 24.2695 167.382 24.2695 167.382C24.2695 167.382 24.2695 167.382 24.2695 167.383C24.2695 167.383 24.2695 167.383 24.2695 167.383C24.2695 167.383 24.2695 167.384 24.2695 167.384C24.2695 167.384 24.2695 167.384 24.2695 167.384C24.2695 167.385 24.2695 167.385 24.2695 167.385C24.2695 167.385 24.2695 167.385 24.2695 167.386C24.2695 167.386 24.2695 167.386 24.2695 167.386C24.2695 167.386 24.2695 167.387 24.2695 167.387C24.2695 167.387 24.2695 167.387 24.2695 167.387C24.2695 167.387 24.2695 167.388 24.2695 167.388C24.2695 167.388 24.2695 167.388 24.2695 167.388C24.2695 167.389 24.2695 167.389 24.2695 167.389C24.2695 167.389 24.2695 167.389 24.2695 167.39C24.2695 167.39 24.2695 167.39 24.2695 167.39C24.2695 167.39 24.2695 167.391 24.2695 167.391C24.2695 167.391 24.2695 167.391 24.2695 167.391C24.2695 167.392 24.2695 167.392 24.2695 167.392C24.2695 167.392 24.2695 167.392 24.2695 167.393C24.2695 167.393 24.2695 167.393 24.2695 167.393C24.2695 167.393 24.2695 167.393 24.2695 167.394C24.2695 167.394 24.2695 167.394 24.2695 167.394C24.2695 167.394 24.2695 167.395 24.2695 167.395C24.2695 167.395 24.2695 167.395 24.2695 167.395C24.2695 167.396 24.2695 167.396 24.2695 167.396C24.2695 167.396 24.2695 167.396 24.2695 167.397C24.2695 167.397 24.2695 167.397 24.2695 167.397C24.2695 167.397 24.2695 167.398 24.2695 167.398C24.2695 167.398 24.2695 167.398 24.2695 167.398C24.2695 167.399 24.2695 167.399 24.2695 167.399C24.2695 167.399 24.2695 167.399 24.2695 167.399C24.2695 167.4 24.2695 167.4 24.2695 167.4C24.2695 167.4 24.2695 167.4 24.2695 167.401C24.2695 167.401 24.2695 167.401 24.2695 167.401C24.2695 167.401 24.2695 167.402 24.2695 167.402C24.2695 167.402 24.2695 167.402 24.2695 167.402C24.2695 167.403 24.2695 167.403 24.2695 167.403C24.2695 167.403 24.2695 167.403 24.2695 167.404C24.2695 167.404 24.2695 167.404 24.2695 167.404C24.2695 167.404 24.2695 167.405 24.2695 167.405C24.2695 167.405 24.2695 167.405 24.2695 167.405C24.2695 167.405 24.2695 167.406 24.2695 167.406C24.2695 167.406 24.2695 167.406 24.2695 167.406C24.2695 167.407 24.2695 167.407 24.2695 167.407C24.2695 167.407 24.2695 167.407 24.2695 167.408C24.2695 167.408 24.2695 167.408 24.2695 167.408C24.2695 167.408 24.2695 167.409 24.2695 167.409C24.2695 167.409 24.2695 167.409 24.2695 167.409C24.2695 167.41 24.2695 167.41 24.2695 167.41C24.2695 167.41 24.2695 167.41 24.2695 167.41C24.2695 167.411 24.2695 167.411 24.2695 167.411C24.2695 167.411 24.2695 167.411 24.2695 167.412C24.2695 167.412 24.2695 167.412 24.2695 167.412C24.2695 167.412 24.2695 167.413 24.2695 167.413C24.2695 167.413 24.2695 167.413 24.2695 167.413C24.2695 167.414 24.2695 167.414 24.2695 167.414C24.2695 167.414 24.2695 167.414 24.2695 167.415C24.2695 167.415 24.2695 167.415 24.2695 167.415C24.2695 167.415 24.2695 167.416 24.2695 167.416C24.2695 167.416 24.2695 167.416 24.2695 167.416C24.2695 167.416 24.2695 167.417 24.2695 167.417C24.2695 167.417 24.2695 167.417 24.2695 167.417C24.2695 167.418 24.2695 167.418 24.2695 167.418C24.2695 167.418 24.2695 167.418 24.2695 167.419C24.2695 167.419 24.2695 167.419 24.2695 167.419C24.2695 167.419 24.2695 167.42 24.2695 167.42C24.2695 167.42 24.2695 167.42 24.2695 167.42C24.2695 167.421 24.2695 167.421 24.2695 167.421C24.2695 167.421 24.2695 167.421 24.2695 167.422C24.2695 167.422 24.2695 167.422 24.2695 167.422C24.2695 167.422 24.2695 167.422 24.2695 167.423C24.2695 167.423 24.2695 167.423 24.2695 167.423C24.2695 167.423 24.2695 167.424 24.2695 167.424C24.2695 167.424 24.2695 167.424 24.2695 167.424C24.2695 167.425 24.2695 167.425 24.2695 167.425C24.2695 167.425 24.2695 167.425 24.2695 167.426C24.2695 167.426 24.2695 167.426 24.2695 167.426C24.2695 167.426 24.2695 167.427 24.2695 167.427C24.2695 167.427 24.2695 167.427 24.2695 167.427C24.2695 167.427 24.2695 167.428 24.2695 167.428C24.2695 167.428 24.2695 167.428 24.2695 167.428C24.2695 167.429 24.2695 167.429 24.2695 167.429C24.2695 167.429 24.2695 167.429 24.2695 167.43C24.2695 167.43 24.2695 167.43 24.2695 167.43C24.2695 167.43 24.2695 167.431 24.2695 167.431C24.2695 167.431 24.2695 167.431 24.2695 167.431C24.2695 167.432 24.2695 167.432 24.2695 167.432C24.2695 167.432 24.2695 167.432 24.2695 167.433C24.2695 167.433 24.2695 167.433 24.2695 167.433C24.2695 167.433 24.2695 167.433 24.2695 167.434C24.2695 167.434 24.2695 167.434 24.2695 167.434C24.2695 167.434 24.2695 167.435 24.2695 167.435C24.2695 167.435 24.2695 167.435 24.2695 167.435C24.2695 167.436 24.2695 167.436 24.2695 167.436C24.2695 167.436 24.2695 167.436 24.2695 167.437C24.2695 167.437 24.2695 167.437 24.2695 167.437C24.2695 167.437 24.2695 167.438 24.2695 167.438C24.2695 167.438 24.2695 167.438 24.2695 167.438C24.2695 167.439 24.2695 167.439 24.2695 167.439C24.2695 167.439 24.2695 167.439 24.2695 167.439C24.2695 167.44 24.2695 167.44 24.2695 167.44C24.2695 167.44 24.2695 167.44 24.2695 167.441C24.2695 167.441 24.2695 167.441 24.2695 167.441C24.2695 167.441 24.2695 167.442 24.2695 167.442C24.2695 167.442 24.2695 167.442 24.2695 167.442C24.2695 167.443 24.2695 167.443 24.2695 167.443C24.2695 167.443 24.2695 167.443 24.2695 167.444C24.2695 167.444 24.2695 167.444 24.2695 167.444C24.2695 167.444 24.2695 167.445 24.2695 167.445C24.2695 167.445 24.2695 167.445 24.2695 167.445C24.2695 167.445 24.2695 167.446 24.2695 167.446C24.2695 167.446 24.2695 167.446 24.2695 167.446C24.2695 167.447 24.2695 167.447 24.2695 167.447C24.2695 167.447 24.2695 167.447 24.2695 167.448C24.2695 167.448 24.2695 167.448 24.2695 167.448C24.2695 167.448 24.2695 167.449 24.2695 167.449C24.2695 167.449 24.2695 167.449 24.2695 167.449C24.2695 167.45 24.2695 167.45 24.2695 167.45C24.2695 167.45 24.2695 167.45 24.2695 167.451C24.2695 167.451 24.2695 167.451 24.2695 167.451C24.2695 167.451 24.2695 167.451 24.2695 167.452C24.2695 167.452 24.2695 167.452 24.2695 167.452C24.2695 167.452 24.2695 167.453 24.2695 167.453C24.2695 167.453 24.2695 167.453 24.2695 167.453C24.2695 167.454 24.2695 167.454 24.2695 167.454C24.2695 167.454 24.2695 167.454 24.2695 167.455C24.2695 167.455 24.2695 167.455 24.2695 167.455C24.2695 167.455 24.2695 167.456 24.2695 167.456C24.2695 167.456 24.2695 167.456 24.2695 167.456C24.2695 167.456 24.2695 167.457 24.2695 167.457C24.2695 167.457 24.2695 167.457 24.2695 167.457C24.2695 167.458 24.2695 167.458 24.2695 167.458C24.2695 167.458 24.2695 167.458 24.2695 167.459C24.2695 167.459 24.2695 167.459 24.2695 167.459C24.2695 167.459 24.2695 167.46 24.2695 167.46C24.2695 167.46 24.2695 167.46 24.2695 167.46C24.2695 167.461 24.2695 167.461 24.2695 167.461C24.2695 167.461 24.2695 167.461 24.2695 167.462C24.2695 167.462 24.2695 167.462 24.2695 167.462C24.2695 167.462 24.2695 167.462 24.2695 167.463C24.2695 167.463 24.2695 167.463 24.2695 167.463C24.2695 167.463 24.2695 167.464 24.2695 167.464C24.2695 167.464 24.2695 167.464 24.2695 167.464C24.2695 167.465 24.2695 167.465 24.2695 167.465C24.2695 167.465 24.2695 167.465 24.2695 167.466C24.2695 167.466 24.2695 167.466 24.2695 167.466C24.2695 167.466 24.2695 167.467 24.2695 167.467C24.2695 167.467 24.2695 167.467 24.2695 167.467C24.2695 167.468 24.2695 167.468 24.2695 167.468C24.2695 167.468 24.2695 167.468 24.2695 167.468C24.2695 167.469 24.2695 167.469 24.2695 167.469C24.2695 167.469 24.2695 167.469 24.2695 167.47C24.2695 167.47 24.2695 167.47 24.2695 167.47C24.2695 167.47 24.2695 167.471 24.2695 167.471C24.2695 167.471 24.2695 167.471 24.2695 167.471C24.2695 167.472 24.2695 167.472 24.2695 167.472C24.2695 167.472 24.2695 167.472 24.2695 167.473C24.2695 167.473 24.2695 167.473 24.2695 167.473C24.2695 167.473 24.2695 167.474 24.2695 167.474C24.2695 167.474 24.2695 167.474 24.2695 167.474C24.2695 167.474 24.2695 167.475 24.2695 167.475C24.2695 167.475 24.2695 167.475 24.2695 167.475C24.2695 167.476 24.2695 167.476 24.2695 167.476C24.2695 167.476 24.2695 167.476 24.2695 167.477C24.2695 167.477 24.2695 167.477 24.2695 167.477C24.2695 167.477 24.2695 167.478 24.2695 167.478C24.2695 167.478 24.2695 167.478 24.2695 167.478C24.2695 167.479 24.2695 167.479 24.2695 167.479C24.2695 167.479 24.2695 167.479 24.2695 167.479C24.2695 167.48 24.2695 167.48 24.2695 167.48C24.2695 167.48 24.2695 167.48 24.2695 167.481C24.2695 167.481 24.2695 167.481 24.2695 167.481C24.2695 167.481 24.2695 167.482 24.2695 167.482C24.2695 167.482 24.2695 167.482 24.2695 167.482C24.2695 167.483 24.2695 167.483 24.2695 167.483C24.2695 167.483 24.2695 167.483 24.2695 167.484C24.2695 167.484 24.2695 167.484 24.2695 167.484C24.2695 167.484 24.2695 167.485 24.2695 167.485C24.2695 167.485 24.2695 167.485 24.2695 167.485C24.2695 167.485 24.2695 167.486 24.2695 167.486C24.2695 167.486 24.2695 167.486 24.2695 167.486C24.2695 167.487 24.2695 167.487 24.2695 167.487C24.2695 167.487 24.2695 167.487 24.2695 167.488C24.2695 167.488 24.2695 167.488 24.2695 167.488C24.2695 167.488 24.2695 167.489 24.2695 167.489C24.2695 167.489 24.2695 167.489 24.2695 167.489C24.2695 167.49 24.2695 167.49 24.2695 167.49C24.2695 167.49 24.2695 167.49 24.2695 167.491C24.2695 167.491 24.2695 167.491 24.2695 167.491C24.2695 167.491 24.2695 167.491 24.2695 167.492C24.2695 167.492 24.2695 167.492 24.2695 167.492C24.2695 167.492 24.2695 167.493 24.2695 167.493C24.2695 167.493 24.2695 167.493 24.2695 167.493C24.2695 167.494 24.2695 167.494 24.2695 167.494C24.2695 167.494 24.2695 167.494 24.2695 167.495C24.2695 167.495 24.2695 167.495 24.2695 167.495C24.2695 167.495 24.2695 167.496 24.2695 167.496C24.2695 167.496 24.2695 167.496 24.2695 167.496C24.2695 167.497 24.2695 167.497 24.2695 167.497C24.2695 167.497 24.2695 167.497 24.2695 167.497C24.2695 167.498 24.2695 167.498 24.2695 167.498C24.2695 167.498 24.2695 167.498 24.2695 167.499C24.2695 167.499 24.2695 167.499 24.2695 167.499C24.2695 167.499 24.2695 167.5 24.2695 167.5C24.2695 167.5 24.2695 167.5 24.2695 167.5C24.2695 167.501 24.2695 167.501 24.2695 167.501C24.2695 167.501 24.2695 167.501 24.2695 167.502C24.2695 167.502 24.2695 167.502 24.2695 167.502C24.2695 167.502 24.2695 167.502 24.2695 167.503C24.2695 167.503 24.2695 167.503 24.2695 167.503C24.2695 167.503 24.2695 167.504 24.2695 167.504C24.2695 167.504 24.2695 167.504 24.2695 167.504C24.2695 167.505 24.2695 167.505 24.2695 167.505C24.2695 167.505 24.2695 167.505 24.2695 167.506C24.2695 167.506 24.2695 167.506 24.2695 167.506C24.2695 167.506 24.2695 167.507 24.2695 167.507C24.2695 167.507 24.2695 167.507 24.2695 167.507C24.2695 167.508 24.2695 167.508 24.2695 167.508C24.2695 167.508 24.2695 167.508 24.2695 167.508C24.2695 167.509 24.2695 167.509 24.2695 167.509C24.2695 167.509 24.2695 167.509 24.2695 167.51C24.2695 167.51 24.2695 167.51 24.2695 167.51C24.2695 167.51 24.2695 167.511 24.2695 167.511C24.2695 167.511 24.2695 167.511 24.2695 167.511C24.2695 167.512 24.2695 167.512 24.2695 167.512C24.2695 167.512 24.2695 167.512 24.2695 167.513C24.2695 167.513 24.2695 167.513 24.2695 167.513C24.2695 167.513 24.2695 167.514 24.2695 167.514C24.2695 167.514 24.2695 167.514 24.2695 167.514C24.2695 167.514 24.2695 167.515 24.2695 167.515C24.2695 167.515 24.2695 167.515 24.2695 167.515C24.2695 167.516 24.2695 167.516 24.2695 167.516C24.2695 167.516 24.2695 167.516 24.2695 167.517C24.2695 167.517 24.2695 167.517 24.2695 167.517C24.2695 167.517 24.2695 167.518 24.2695 167.518C24.2695 167.518 24.2695 167.518 24.2695 167.518C24.2695 167.519 24.2695 167.519 24.2695 167.519C24.2695 167.519 24.2695 167.519 24.2695 167.52C24.2695 167.52 24.2695 167.52 24.2695 167.52C24.2695 167.52 24.2695 167.52 24.2695 167.521C24.2695 167.521 24.2695 167.521 24.2695 167.521C24.2695 167.521 24.2695 167.522 24.2695 167.522C24.2695 167.522 24.2695 167.522 24.2695 167.522C24.2695 167.523 24.2695 167.523 24.2695 167.523C24.2695 167.523 24.2695 167.523 24.2695 167.524C24.2695 167.524 24.2695 167.524 24.2695 167.524C24.2695 167.524 24.2695 167.525 24.2695 167.525C24.2695 167.525 24.2695 167.525 24.2695 167.525C24.2695 167.525 24.2695 167.526 24.2695 167.526C24.2695 167.526 24.2695 167.526 24.2695 167.526C24.2695 167.527 24.2695 167.527 24.2695 167.527C24.2695 167.527 24.2695 167.527 24.2695 167.528C24.2695 167.528 24.2695 167.528 24.2695 167.528C24.2695 167.528 24.2695 167.529 24.2695 167.529C24.2695 167.529 24.2695 167.529 24.2695 167.529C24.2695 167.53 24.2695 167.53 24.2695 167.53C24.2695 167.53 24.2695 167.53 24.2695 167.531C24.2695 167.531 24.2695 167.531 24.2695 167.531C24.2695 167.531 24.2695 167.531 24.2695 167.532C24.2695 167.532 24.2695 167.532 24.2695 167.532C24.2695 167.532 24.2695 167.533 24.2695 167.533C24.2695 167.533 24.2695 167.533 24.2695 167.533C24.2695 167.534 24.2695 167.534 24.2695 167.534C24.2695 167.534 24.2695 167.534 24.2695 167.535C24.2695 167.535 24.2695 167.535 24.2695 167.535H26.2695C26.2695 167.535 26.2695 167.535 26.2695 167.535C26.2695 167.534 26.2695 167.534 26.2695 167.534C26.2695 167.534 26.2695 167.534 26.2695 167.533C26.2695 167.533 26.2695 167.533 26.2695 167.533C26.2695 167.533 26.2695 167.532 26.2695 167.532C26.2695 167.532 26.2695 167.532 26.2695 167.532C26.2695 167.531 26.2695 167.531 26.2695 167.531C26.2695 167.531 26.2695 167.531 26.2695 167.531C26.2695 167.53 26.2695 167.53 26.2695 167.53C26.2695 167.53 26.2695 167.53 26.2695 167.529C26.2695 167.529 26.2695 167.529 26.2695 167.529C26.2695 167.529 26.2695 167.528 26.2695 167.528C26.2695 167.528 26.2695 167.528 26.2695 167.528C26.2695 167.527 26.2695 167.527 26.2695 167.527C26.2695 167.527 26.2695 167.527 26.2695 167.526C26.2695 167.526 26.2695 167.526 26.2695 167.526C26.2695 167.526 26.2695 167.525 26.2695 167.525C26.2695 167.525 26.2695 167.525 26.2695 167.525C26.2695 167.525 26.2695 167.524 26.2695 167.524C26.2695 167.524 26.2695 167.524 26.2695 167.524C26.2695 167.523 26.2695 167.523 26.2695 167.523C26.2695 167.523 26.2695 167.523 26.2695 167.522C26.2695 167.522 26.2695 167.522 26.2695 167.522C26.2695 167.522 26.2695 167.521 26.2695 167.521C26.2695 167.521 26.2695 167.521 26.2695 167.521C26.2695 167.52 26.2695 167.52 26.2695 167.52C26.2695 167.52 26.2695 167.52 26.2695 167.52C26.2695 167.519 26.2695 167.519 26.2695 167.519C26.2695 167.519 26.2695 167.519 26.2695 167.518C26.2695 167.518 26.2695 167.518 26.2695 167.518C26.2695 167.518 26.2695 167.517 26.2695 167.517C26.2695 167.517 26.2695 167.517 26.2695 167.517C26.2695 167.516 26.2695 167.516 26.2695 167.516C26.2695 167.516 26.2695 167.516 26.2695 167.515C26.2695 167.515 26.2695 167.515 26.2695 167.515C26.2695 167.515 26.2695 167.514 26.2695 167.514C26.2695 167.514 26.2695 167.514 26.2695 167.514C26.2695 167.514 26.2695 167.513 26.2695 167.513C26.2695 167.513 26.2695 167.513 26.2695 167.513C26.2695 167.512 26.2695 167.512 26.2695 167.512C26.2695 167.512 26.2695 167.512 26.2695 167.511C26.2695 167.511 26.2695 167.511 26.2695 167.511C26.2695 167.511 26.2695 167.51 26.2695 167.51C26.2695 167.51 26.2695 167.51 26.2695 167.51C26.2695 167.509 26.2695 167.509 26.2695 167.509C26.2695 167.509 26.2695 167.509 26.2695 167.508C26.2695 167.508 26.2695 167.508 26.2695 167.508C26.2695 167.508 26.2695 167.508 26.2695 167.507C26.2695 167.507 26.2695 167.507 26.2695 167.507C26.2695 167.507 26.2695 167.506 26.2695 167.506C26.2695 167.506 26.2695 167.506 26.2695 167.506C26.2695 167.505 26.2695 167.505 26.2695 167.505C26.2695 167.505 26.2695 167.505 26.2695 167.504C26.2695 167.504 26.2695 167.504 26.2695 167.504C26.2695 167.504 26.2695 167.503 26.2695 167.503C26.2695 167.503 26.2695 167.503 26.2695 167.503C26.2695 167.502 26.2695 167.502 26.2695 167.502C26.2695 167.502 26.2695 167.502 26.2695 167.502C26.2695 167.501 26.2695 167.501 26.2695 167.501C26.2695 167.501 26.2695 167.501 26.2695 167.5C26.2695 167.5 26.2695 167.5 26.2695 167.5C26.2695 167.5 26.2695 167.499 26.2695 167.499C26.2695 167.499 26.2695 167.499 26.2695 167.499C26.2695 167.498 26.2695 167.498 26.2695 167.498C26.2695 167.498 26.2695 167.498 26.2695 167.497C26.2695 167.497 26.2695 167.497 26.2695 167.497C26.2695 167.497 26.2695 167.497 26.2695 167.496C26.2695 167.496 26.2695 167.496 26.2695 167.496C26.2695 167.496 26.2695 167.495 26.2695 167.495C26.2695 167.495 26.2695 167.495 26.2695 167.495C26.2695 167.494 26.2695 167.494 26.2695 167.494C26.2695 167.494 26.2695 167.494 26.2695 167.493C26.2695 167.493 26.2695 167.493 26.2695 167.493C26.2695 167.493 26.2695 167.492 26.2695 167.492C26.2695 167.492 26.2695 167.492 26.2695 167.492C26.2695 167.491 26.2695 167.491 26.2695 167.491C26.2695 167.491 26.2695 167.491 26.2695 167.491C26.2695 167.49 26.2695 167.49 26.2695 167.49C26.2695 167.49 26.2695 167.49 26.2695 167.489C26.2695 167.489 26.2695 167.489 26.2695 167.489C26.2695 167.489 26.2695 167.488 26.2695 167.488C26.2695 167.488 26.2695 167.488 26.2695 167.488C26.2695 167.487 26.2695 167.487 26.2695 167.487C26.2695 167.487 26.2695 167.487 26.2695 167.486C26.2695 167.486 26.2695 167.486 26.2695 167.486C26.2695 167.486 26.2695 167.485 26.2695 167.485C26.2695 167.485 26.2695 167.485 26.2695 167.485C26.2695 167.485 26.2695 167.484 26.2695 167.484C26.2695 167.484 26.2695 167.484 26.2695 167.484C26.2695 167.483 26.2695 167.483 26.2695 167.483C26.2695 167.483 26.2695 167.483 26.2695 167.482C26.2695 167.482 26.2695 167.482 26.2695 167.482C26.2695 167.482 26.2695 167.481 26.2695 167.481C26.2695 167.481 26.2695 167.481 26.2695 167.481C26.2695 167.48 26.2695 167.48 26.2695 167.48C26.2695 167.48 26.2695 167.48 26.2695 167.479C26.2695 167.479 26.2695 167.479 26.2695 167.479C26.2695 167.479 26.2695 167.479 26.2695 167.478C26.2695 167.478 26.2695 167.478 26.2695 167.478C26.2695 167.478 26.2695 167.477 26.2695 167.477C26.2695 167.477 26.2695 167.477 26.2695 167.477C26.2695 167.476 26.2695 167.476 26.2695 167.476C26.2695 167.476 26.2695 167.476 26.2695 167.475C26.2695 167.475 26.2695 167.475 26.2695 167.475C26.2695 167.475 26.2695 167.474 26.2695 167.474C26.2695 167.474 26.2695 167.474 26.2695 167.474C26.2695 167.474 26.2695 167.473 26.2695 167.473C26.2695 167.473 26.2695 167.473 26.2695 167.473C26.2695 167.472 26.2695 167.472 26.2695 167.472C26.2695 167.472 26.2695 167.472 26.2695 167.471C26.2695 167.471 26.2695 167.471 26.2695 167.471C26.2695 167.471 26.2695 167.47 26.2695 167.47C26.2695 167.47 26.2695 167.47 26.2695 167.47C26.2695 167.469 26.2695 167.469 26.2695 167.469C26.2695 167.469 26.2695 167.469 26.2695 167.468C26.2695 167.468 26.2695 167.468 26.2695 167.468C26.2695 167.468 26.2695 167.468 26.2695 167.467C26.2695 167.467 26.2695 167.467 26.2695 167.467C26.2695 167.467 26.2695 167.466 26.2695 167.466C26.2695 167.466 26.2695 167.466 26.2695 167.466C26.2695 167.465 26.2695 167.465 26.2695 167.465C26.2695 167.465 26.2695 167.465 26.2695 167.464C26.2695 167.464 26.2695 167.464 26.2695 167.464C26.2695 167.464 26.2695 167.463 26.2695 167.463C26.2695 167.463 26.2695 167.463 26.2695 167.463C26.2695 167.462 26.2695 167.462 26.2695 167.462C26.2695 167.462 26.2695 167.462 26.2695 167.462C26.2695 167.461 26.2695 167.461 26.2695 167.461C26.2695 167.461 26.2695 167.461 26.2695 167.46C26.2695 167.46 26.2695 167.46 26.2695 167.46C26.2695 167.46 26.2695 167.459 26.2695 167.459C26.2695 167.459 26.2695 167.459 26.2695 167.459C26.2695 167.458 26.2695 167.458 26.2695 167.458C26.2695 167.458 26.2695 167.458 26.2695 167.457C26.2695 167.457 26.2695 167.457 26.2695 167.457C26.2695 167.457 26.2695 167.456 26.2695 167.456C26.2695 167.456 26.2695 167.456 26.2695 167.456C26.2695 167.456 26.2695 167.455 26.2695 167.455C26.2695 167.455 26.2695 167.455 26.2695 167.455C26.2695 167.454 26.2695 167.454 26.2695 167.454C26.2695 167.454 26.2695 167.454 26.2695 167.453C26.2695 167.453 26.2695 167.453 26.2695 167.453C26.2695 167.453 26.2695 167.452 26.2695 167.452C26.2695 167.452 26.2695 167.452 26.2695 167.452C26.2695 167.451 26.2695 167.451 26.2695 167.451C26.2695 167.451 26.2695 167.451 26.2695 167.451C26.2695 167.45 26.2695 167.45 26.2695 167.45C26.2695 167.45 26.2695 167.45 26.2695 167.449C26.2695 167.449 26.2695 167.449 26.2695 167.449C26.2695 167.449 26.2695 167.448 26.2695 167.448C26.2695 167.448 26.2695 167.448 26.2695 167.448C26.2695 167.447 26.2695 167.447 26.2695 167.447C26.2695 167.447 26.2695 167.447 26.2695 167.446C26.2695 167.446 26.2695 167.446 26.2695 167.446C26.2695 167.446 26.2695 167.445 26.2695 167.445C26.2695 167.445 26.2695 167.445 26.2695 167.445C26.2695 167.445 26.2695 167.444 26.2695 167.444C26.2695 167.444 26.2695 167.444 26.2695 167.444C26.2695 167.443 26.2695 167.443 26.2695 167.443C26.2695 167.443 26.2695 167.443 26.2695 167.442C26.2695 167.442 26.2695 167.442 26.2695 167.442C26.2695 167.442 26.2695 167.441 26.2695 167.441C26.2695 167.441 26.2695 167.441 26.2695 167.441C26.2695 167.44 26.2695 167.44 26.2695 167.44C26.2695 167.44 26.2695 167.44 26.2695 167.439C26.2695 167.439 26.2695 167.439 26.2695 167.439C26.2695 167.439 26.2695 167.439 26.2695 167.438C26.2695 167.438 26.2695 167.438 26.2695 167.438C26.2695 167.438 26.2695 167.437 26.2695 167.437C26.2695 167.437 26.2695 167.437 26.2695 167.437C26.2695 167.436 26.2695 167.436 26.2695 167.436C26.2695 167.436 26.2695 167.436 26.2695 167.435C26.2695 167.435 26.2695 167.435 26.2695 167.435C26.2695 167.435 26.2695 167.434 26.2695 167.434C26.2695 167.434 26.2695 167.434 26.2695 167.434C26.2695 167.433 26.2695 167.433 26.2695 167.433C26.2695 167.433 26.2695 167.433 26.2695 167.433C26.2695 167.432 26.2695 167.432 26.2695 167.432C26.2695 167.432 26.2695 167.432 26.2695 167.431C26.2695 167.431 26.2695 167.431 26.2695 167.431C26.2695 167.431 26.2695 167.43 26.2695 167.43C26.2695 167.43 26.2695 167.43 26.2695 167.43C26.2695 167.429 26.2695 167.429 26.2695 167.429C26.2695 167.429 26.2695 167.429 26.2695 167.428C26.2695 167.428 26.2695 167.428 26.2695 167.428C26.2695 167.428 26.2695 167.427 26.2695 167.427C26.2695 167.427 26.2695 167.427 26.2695 167.427C26.2695 167.427 26.2695 167.426 26.2695 167.426C26.2695 167.426 26.2695 167.426 26.2695 167.426C26.2695 167.425 26.2695 167.425 26.2695 167.425C26.2695 167.425 26.2695 167.425 26.2695 167.424C26.2695 167.424 26.2695 167.424 26.2695 167.424C26.2695 167.424 26.2695 167.423 26.2695 167.423C26.2695 167.423 26.2695 167.423 26.2695 167.423C26.2695 167.422 26.2695 167.422 26.2695 167.422C26.2695 167.422 26.2695 167.422 26.2695 167.422C26.2695 167.421 26.2695 167.421 26.2695 167.421C26.2695 167.421 26.2695 167.421 26.2695 167.42C26.2695 167.42 26.2695 167.42 26.2695 167.42C26.2695 167.42 26.2695 167.419 26.2695 167.419C26.2695 167.419 26.2695 167.419 26.2695 167.419C26.2695 167.418 26.2695 167.418 26.2695 167.418C26.2695 167.418 26.2695 167.418 26.2695 167.417C26.2695 167.417 26.2695 167.417 26.2695 167.417C26.2695 167.417 26.2695 167.416 26.2695 167.416C26.2695 167.416 26.2695 167.416 26.2695 167.416C26.2695 167.416 26.2695 167.415 26.2695 167.415C26.2695 167.415 26.2695 167.415 26.2695 167.415C26.2695 167.414 26.2695 167.414 26.2695 167.414C26.2695 167.414 26.2695 167.414 26.2695 167.413C26.2695 167.413 26.2695 167.413 26.2695 167.413C26.2695 167.413 26.2695 167.412 26.2695 167.412C26.2695 167.412 26.2695 167.412 26.2695 167.412C26.2695 167.411 26.2695 167.411 26.2695 167.411C26.2695 167.411 26.2695 167.411 26.2695 167.41C26.2695 167.41 26.2695 167.41 26.2695 167.41C26.2695 167.41 26.2695 167.41 26.2695 167.409C26.2695 167.409 26.2695 167.409 26.2695 167.409C26.2695 167.409 26.2695 167.408 26.2695 167.408C26.2695 167.408 26.2695 167.408 26.2695 167.408C26.2695 167.407 26.2695 167.407 26.2695 167.407C26.2695 167.407 26.2695 167.407 26.2695 167.406C26.2695 167.406 26.2695 167.406 26.2695 167.406C26.2695 167.406 26.2695 167.405 26.2695 167.405C26.2695 167.405 26.2695 167.405 26.2695 167.405C26.2695 167.405 26.2695 167.404 26.2695 167.404C26.2695 167.404 26.2695 167.404 26.2695 167.404C26.2695 167.403 26.2695 167.403 26.2695 167.403C26.2695 167.403 26.2695 167.403 26.2695 167.402C26.2695 167.402 26.2695 167.402 26.2695 167.402C26.2695 167.402 26.2695 167.401 26.2695 167.401C26.2695 167.401 26.2695 167.401 26.2695 167.401C26.2695 167.4 26.2695 167.4 26.2695 167.4C26.2695 167.4 26.2695 167.4 26.2695 167.399C26.2695 167.399 26.2695 167.399 26.2695 167.399C26.2695 167.399 26.2695 167.399 26.2695 167.398C26.2695 167.398 26.2695 167.398 26.2695 167.398C26.2695 167.398 26.2695 167.397 26.2695 167.397C26.2695 167.397 26.2695 167.397 26.2695 167.397C26.2695 167.396 26.2695 167.396 26.2695 167.396C26.2695 167.396 26.2695 167.396 26.2695 167.395C26.2695 167.395 26.2695 167.395 26.2695 167.395C26.2695 167.395 26.2695 167.394 26.2695 167.394C26.2695 167.394 26.2695 167.394 26.2695 167.394C26.2695 167.393 26.2695 167.393 26.2695 167.393C26.2695 167.393 26.2695 167.393 26.2695 167.393C26.2695 167.392 26.2695 167.392 26.2695 167.392C26.2695 167.392 26.2695 167.392 26.2695 167.391C26.2695 167.391 26.2695 167.391 26.2695 167.391C26.2695 167.391 26.2695 167.39 26.2695 167.39C26.2695 167.39 26.2695 167.39 26.2695 167.39C26.2695 167.389 26.2695 167.389 26.2695 167.389C26.2695 167.389 26.2695 167.389 26.2695 167.388C26.2695 167.388 26.2695 167.388 26.2695 167.388C26.2695 167.388 26.2695 167.387 26.2695 167.387C26.2695 167.387 26.2695 167.387 26.2695 167.387C26.2695 167.387 26.2695 167.386 26.2695 167.386C26.2695 167.386 26.2695 167.386 26.2695 167.386C26.2695 167.385 26.2695 167.385 26.2695 167.385C26.2695 167.385 26.2695 167.385 26.2695 167.384C26.2695 167.384 26.2695 167.384 26.2695 167.384C26.2695 167.384 26.2695 167.383 26.2695 167.383C26.2695 167.383 26.2695 167.383 26.2695 167.383C26.2695 167.382 26.2695 167.382 26.2695 167.382C26.2695 167.382 26.2695 167.382 26.2695 167.382C26.2695 167.381 26.2695 167.381 26.2695 167.381C26.2695 167.381 26.2695 167.381 26.2695 167.38C26.2695 167.38 26.2695 167.38 26.2695 167.38C26.2695 167.38 26.2695 167.379 26.2695 167.379C26.2695 167.379 26.2695 167.379 26.2695 167.379C26.2695 167.378 26.2695 167.378 26.2695 167.378C26.2695 167.378 26.2695 167.378 26.2695 167.377C26.2695 167.377 26.2695 167.377 26.2695 167.377C26.2695 167.377 26.2695 167.376 26.2695 167.376C26.2695 167.376 26.2695 167.376 26.2695 167.376C26.2695 167.376 26.2695 167.375 26.2695 167.375C26.2695 167.375 26.2695 167.375 26.2695 167.375C26.2695 167.374 26.2695 167.374 26.2695 167.374C26.2695 167.374 26.2695 167.374 26.2695 167.373C26.2695 167.373 26.2695 167.373 26.2695 167.373C26.2695 167.373 26.2695 167.372 26.2695 167.372C26.2695 167.372 26.2695 167.372 26.2695 167.372C26.2695 167.371 26.2695 167.371 26.2695 167.371C26.2695 167.371 26.2695 167.371 26.2695 167.37C26.2695 167.37 26.2695 167.37 26.2695 167.37C26.2695 167.37 26.2695 167.37 26.2695 167.369C26.2695 167.369 26.2695 167.369 26.2695 167.369C26.2695 167.369 26.2695 167.368 26.2695 167.368C26.2695 167.368 26.2695 167.368 26.2695 167.368C26.2695 167.367 26.2695 167.367 26.2695 167.367C26.2695 167.367 26.2695 167.367 26.2695 167.366C26.2695 167.366 26.2695 167.366 26.2695 167.366C26.2695 167.366 26.2695 167.365 26.2695 167.365C26.2695 167.365 26.2695 167.365 26.2695 167.365C26.2695 167.364 26.2695 167.364 26.2695 167.364C26.2695 167.364 26.2695 167.364 26.2695 167.364C26.2695 167.363 26.2695 167.363 26.2695 167.363C26.2695 167.363 26.2695 167.363 26.2695 167.362C26.2695 167.362 26.2695 167.362 26.2695 167.362C26.2695 167.362 26.2695 167.361 26.2695 167.361C26.2695 167.361 26.2695 167.361 26.2695 167.361C26.2695 167.36 26.2695 167.36 26.2695 167.36C26.2695 167.36 26.2695 167.36 26.2695 167.359C26.2695 167.359 26.2695 167.359 26.2695 167.359C26.2695 167.359 26.2695 167.358 26.2695 167.358C26.2695 167.358 26.2695 167.358 26.2695 167.358C26.2695 167.358 26.2695 167.357 26.2695 167.357C26.2695 167.357 26.2695 167.357 26.2695 167.357C26.2695 167.356 26.2695 167.356 26.2695 167.356C26.2695 167.356 26.2695 167.356 26.2695 167.355C26.2695 167.355 26.2695 167.355 26.2695 167.355C26.2695 167.355 26.2695 167.354 26.2695 167.354C26.2695 167.354 26.2695 167.354 26.2695 167.354C26.2695 167.353 26.2695 167.353 26.2695 167.353C26.2695 167.353 26.2695 167.353 26.2695 167.353C26.2695 167.352 26.2695 167.352 26.2695 167.352C26.2695 167.352 26.2695 167.352 26.2695 167.351C26.2695 167.351 26.2695 167.351 26.2695 167.351C26.2695 167.351 26.2695 167.35 26.2695 167.35C26.2695 167.35 26.2695 167.35 26.2695 167.35C26.2695 167.349 26.2695 167.349 26.2695 167.349C26.2695 167.349 26.2695 167.349 26.2695 167.348C26.2695 167.348 26.2695 167.348 26.2695 167.348C26.2695 167.348 26.2695 167.347 26.2695 167.347C26.2695 167.347 26.2695 167.347 26.2695 167.347C26.2695 167.347 26.2695 167.346 26.2695 167.346C26.2695 167.346 26.2695 167.346 26.2695 167.346C26.2695 167.345 26.2695 167.345 26.2695 167.345C26.2695 167.345 26.2695 167.345 26.2695 167.344C26.2695 167.344 26.2695 167.344 26.2695 167.344C26.2695 167.344 26.2695 167.343 26.2695 167.343C26.2695 167.343 26.2695 167.343 26.2695 167.343C26.2695 167.342 26.2695 167.342 26.2695 167.342C26.2695 167.342 26.2695 167.342 26.2695 167.341C26.2695 167.341 26.2695 167.341 26.2695 167.341C26.2695 167.341 26.2695 167.341 26.2695 167.34C26.2695 167.34 26.2695 167.34 26.2695 167.34C26.2695 167.34 26.2695 167.339 26.2695 167.339C26.2695 167.339 26.2695 167.339 26.2695 167.339C26.2695 167.338 26.2695 167.338 26.2695 167.338C26.2695 167.338 26.2695 167.338 26.2695 167.337C26.2695 167.337 26.2695 167.337 26.2695 167.337C26.2695 167.337 26.2695 167.336 26.2695 167.336C26.2695 167.336 26.2695 167.336 26.2695 167.336C26.2695 167.336 26.2695 167.335 26.2695 167.335C26.2695 167.335 26.2695 167.335 26.2695 167.335C26.2695 167.334 26.2695 167.334 26.2695 167.334C26.2695 167.334 26.2695 167.334 26.2695 167.333C26.2695 167.333 26.2695 167.333 26.2695 167.333C26.2695 167.333 26.2695 167.332 26.2695 167.332C26.2695 167.332 26.2695 167.332 26.2695 167.332C26.2695 167.331 26.2695 167.331 26.2695 167.331C26.2695 167.331 26.2695 167.331 26.2695 167.33C26.2695 167.33 26.2695 167.33 26.2695 167.33C26.2695 167.33 26.2695 167.33 26.2695 167.329C26.2695 167.329 26.2695 167.329 26.2695 167.329C26.2695 167.329 26.2695 167.328 26.2695 167.328C26.2695 167.328 26.2695 167.328 26.2695 167.328C26.2695 167.327 26.2695 167.327 26.2695 167.327C26.2695 167.327 26.2695 167.327 26.2695 167.326C26.2695 167.326 26.2695 167.326 26.2695 167.326C26.2695 167.326 26.2695 167.325 26.2695 167.325C26.2695 167.325 26.2695 167.325 26.2695 167.325C26.2695 167.324 26.2695 167.324 26.2695 167.324C26.2695 167.324 26.2695 167.324 26.2695 167.324C26.2695 167.323 26.2695 167.323 26.2695 167.323C26.2695 167.323 26.2695 167.323 26.2695 167.322C26.2695 167.322 26.2695 167.322 26.2695 167.322C26.2695 167.322 26.2695 167.321 26.2695 167.321C26.2695 167.321 26.2695 167.321 26.2695 167.321C26.2695 167.32 26.2695 167.32 26.2695 167.32C26.2695 167.32 26.2695 167.32 26.2695 167.319C26.2695 167.319 26.2695 167.319 26.2695 167.319C26.2695 167.319 26.2695 167.318 26.2695 167.318C26.2695 167.318 26.2695 167.318 26.2695 167.318C26.2695 167.318 26.2695 167.317 26.2695 167.317C26.2695 167.317 26.2695 167.317 26.2695 167.317C26.2695 167.316 26.2695 167.316 26.2695 167.316C26.2695 167.316 26.2695 167.316 26.2695 167.315C26.2695 167.315 26.2695 167.315 26.2695 167.315C26.2695 167.315 26.2695 167.314 26.2695 167.314C26.2695 167.314 26.2695 167.314 26.2695 167.314C26.2695 167.313 26.2695 167.313 26.2695 167.313C26.2695 167.313 26.2695 167.313 26.2695 167.312C26.2695 167.312 26.2695 167.312 26.2695 167.312C26.2695 167.312 26.2695 167.312 26.2695 167.311C26.2695 167.311 26.2695 167.311 26.2695 167.311C26.2695 167.311 26.2695 167.31 26.2695 167.31C26.2695 167.31 26.2695 167.31 26.2695 167.31C26.2695 167.309 26.2695 167.309 26.2695 167.309C26.2695 167.309 26.2695 167.309 26.2695 167.308C26.2695 167.308 26.2695 167.308 26.2695 167.308C26.2695 167.308 26.2695 167.307 26.2695 167.307C26.2695 167.307 26.2695 167.307 26.2695 167.307C26.2695 167.307 26.2695 167.306 26.2695 167.306C26.2695 167.306 26.2695 167.306 26.2695 167.306C26.2695 167.305 26.2695 167.305 26.2695 167.305C26.2695 167.305 26.2695 167.305 26.2695 167.304C26.2695 167.304 26.2695 167.304 26.2695 167.304C26.2695 167.304 26.2695 167.303 26.2695 167.303C26.2695 167.303 26.2695 167.303 26.2695 167.303C26.2695 167.302 26.2695 167.302 26.2695 167.302C26.2695 167.302 26.2695 167.302 26.2695 167.301C26.2695 167.301 26.2695 167.301 26.2695 167.301C26.2695 167.301 26.2695 167.301 26.2695 167.3C26.2695 167.3 26.2695 167.3 26.2695 167.3C26.2695 167.3 26.2695 167.299 26.2695 167.299C26.2695 167.299 26.2695 167.299 26.2695 167.299C26.2695 167.298 26.2695 167.298 26.2695 167.298C26.2695 167.298 26.2695 167.298 26.2695 167.297C26.2695 167.297 26.2695 167.297 26.2695 167.297C26.2695 167.297 26.2695 167.296 26.2695 167.296C26.2695 167.296 26.2695 167.296 26.2695 167.296C26.2695 167.295 26.2695 167.295 26.2695 167.295C26.2695 167.295 26.2695 167.295 26.2695 167.295C26.2695 167.294 26.2695 167.294 26.2695 167.294C26.2695 167.294 26.2695 167.294 26.2695 167.293C26.2695 167.293 26.2695 167.293 26.2695 167.293C26.2695 167.293 26.2695 167.292 26.2695 167.292C26.2695 167.292 26.2695 167.292 26.2695 167.292C26.2695 167.291 26.2695 167.291 26.2695 167.291C26.2695 167.291 26.2695 167.291 26.2695 167.29C26.2695 167.29 26.2695 167.29 26.2695 167.29C26.2695 167.29 26.2695 167.289 26.2695 167.289C26.2695 167.289 26.2695 167.289 26.2695 167.289C26.2695 167.289 26.2695 167.288 26.2695 167.288C26.2695 167.288 26.2695 167.288 26.2695 167.288C26.2695 167.287 26.2695 167.287 26.2695 167.287C26.2695 167.287 26.2695 167.287 26.2695 167.286C26.2695 167.286 26.2695 167.286 26.2695 167.286C26.2695 167.286 26.2695 167.285 26.2695 167.285C26.2695 167.285 26.2695 167.285 26.2695 167.285C26.2695 167.284 26.2695 167.284 26.2695 167.284C26.2695 167.284 26.2695 167.284 26.2695 167.284C26.2695 167.283 26.2695 167.283 26.2695 167.283C26.2695 167.283 26.2695 167.283 26.2695 167.282C26.2695 167.282 26.2695 167.282 26.2695 167.282C26.2695 167.282 26.2695 167.281 26.2695 167.281C26.2695 167.281 26.2695 167.281 26.2695 167.281C26.2695 167.28 26.2695 167.28 26.2695 167.28C26.2695 167.28 26.2695 167.28 26.2695 167.279C26.2695 167.279 26.2695 167.279 26.2695 167.279C26.2695 167.279 26.2695 167.278 26.2695 167.278C26.2695 167.278 26.2695 167.278 26.2695 167.278C26.2695 167.278 26.2695 167.277 26.2695 167.277C26.2695 167.277 26.2695 167.277 26.2695 167.277C26.2695 167.276 26.2695 167.276 26.2695 167.276C26.2695 167.276 26.2695 167.276 26.2695 167.275C26.2695 167.275 26.2695 167.275 26.2695 167.275C26.2695 167.275 26.2695 167.274 26.2695 167.274C26.2695 167.274 26.2695 167.274 26.2695 167.274C26.2695 167.273 26.2695 167.273 26.2695 167.273C26.2695 167.273 26.2695 167.273 26.2695 167.272C26.2695 167.272 26.2695 167.272 26.2695 167.272C26.2695 167.272 26.2695 167.272 26.2695 167.271C26.2695 167.271 26.2695 167.271 26.2695 167.271C26.2695 167.271 26.2695 167.27 26.2695 167.27C26.2695 167.27 26.2695 167.27 26.2695 167.27C26.2695 167.269 26.2695 167.269 26.2695 167.269C26.2695 167.269 26.2695 167.269 26.2695 167.268C26.2695 167.268 26.2695 167.268 26.2695 167.268C26.2695 167.268 26.2695 167.267 26.2695 167.267C26.2695 167.267 26.2695 167.267 26.2695 167.267C26.2695 167.267 26.2695 167.266 26.2695 167.266C26.2695 167.266 26.2695 167.266 26.2695 167.266C26.2695 167.265 26.2695 167.265 26.2695 167.265C26.2695 167.265 26.2695 167.265 26.2695 167.264C26.2695 167.264 26.2695 167.264 26.2695 167.264C26.2695 167.264 26.2695 167.263 26.2695 167.263C26.2695 167.263 26.2695 167.263 26.2695 167.263C26.2695 167.262 26.2695 167.262 26.2695 167.262C26.2695 167.262 26.2695 167.262 26.2695 167.261C26.2695 167.261 26.2695 167.261 26.2695 167.261C26.2695 167.261 26.2695 167.261 26.2695 167.26C26.2695 167.26 26.2695 167.26 26.2695 167.26C26.2695 167.26 26.2695 167.259 26.2695 167.259C26.2695 167.259 26.2695 167.259 26.2695 167.259C26.2695 167.258 26.2695 167.258 26.2695 167.258C26.2695 167.258 26.2695 167.258 26.2695 167.257C26.2695 167.257 26.2695 167.257 26.2695 167.257C26.2695 167.257 26.2695 167.256 26.2695 167.256C26.2695 167.256 26.2695 167.256 26.2695 167.256C26.2695 167.255 26.2695 167.255 26.2695 167.255C26.2695 167.255 26.2695 167.255 26.2695 167.255C26.2695 167.254 26.2695 167.254 26.2695 167.254C26.2695 167.254 26.2695 167.254 26.2695 167.253C26.2695 167.253 26.2695 167.253 26.2695 167.253C26.2695 167.253 26.2695 167.252 26.2695 167.252C26.2695 167.252 26.2695 167.252 26.2695 167.252C26.2695 167.251 26.2695 167.251 26.2695 167.251C26.2695 167.251 26.2695 167.251 26.2695 167.25C26.2695 167.25 26.2695 167.25 26.2695 167.25C26.2695 167.25 26.2695 167.249 26.2695 167.249C26.2695 167.249 26.2695 167.249 26.2695 167.249C26.2695 167.249 26.2695 167.248 26.2695 167.248C26.2695 167.248 26.2695 167.248 26.2695 167.248C26.2695 167.247 26.2695 167.247 26.2695 167.247C26.2695 167.247 26.2695 167.247 26.2695 167.246C26.2695 167.246 26.2695 167.246 26.2695 167.246C26.2695 167.246 26.2695 167.245 26.2695 167.245C26.2695 167.245 26.2695 167.245 26.2695 167.245C26.2695 167.244 26.2695 167.244 26.2695 167.244C26.2695 167.244 26.2695 167.244 26.2695 167.243C26.2695 167.243 26.2695 167.243 26.2695 167.243C26.2695 167.243 26.2695 167.243 26.2695 167.242C26.2695 167.242 26.2695 167.242 26.2695 167.242C26.2695 167.242 26.2695 167.241 26.2695 167.241C26.2695 167.241 26.2695 167.241 26.2695 167.241C26.2695 167.24 26.2695 167.24 26.2695 167.24C26.2695 167.24 26.2695 167.24 26.2695 167.239C26.2695 167.239 26.2695 167.239 26.2695 167.239C26.2695 167.239 26.2695 167.238 26.2695 167.238H24.2695ZM24.2695 167.535C24.2695 167.676 24.2783 167.816 24.2958 167.956L26.2804 167.708C26.2731 167.65 26.2695 167.592 26.2695 167.535H24.2695ZM39.7441 163.602C39.7441 164.372 39.6196 165.025 39.3924 165.578L41.2424 166.338C41.5842 165.506 41.7441 164.588 41.7441 163.602H39.7441ZM39.3948 165.572C39.156 166.143 38.8326 166.639 38.4243 167.068L39.8726 168.447C40.4538 167.837 40.9097 167.133 41.24 166.344L39.3948 165.572ZM38.4156 167.077C38.0073 167.517 37.5282 167.892 36.9729 168.202L37.947 169.949C38.6782 169.541 39.3248 169.038 39.8812 168.438L38.4156 167.077ZM36.9729 168.202C36.3894 168.527 35.7636 168.798 35.0939 169.014L35.7069 170.918C36.4968 170.663 37.244 170.341 37.947 169.949L36.9729 168.202ZM35.1086 169.009C34.4345 169.215 33.7355 169.364 33.0107 169.456L33.2627 171.44C34.0965 171.334 34.9066 171.162 35.6922 170.922L35.1086 169.009ZM33.0087 169.456C32.2818 169.55 31.5762 169.597 30.8916 169.597V171.597C31.6667 171.597 32.4578 171.544 33.2647 171.44L33.0087 169.456ZM30.8916 169.597C30.0085 169.597 29.1384 169.538 28.2812 169.42L28.0098 171.402C28.9586 171.532 29.9193 171.597 30.8916 171.597V169.597ZM28.2945 169.422C27.4461 169.294 26.6087 169.097 25.7818 168.829L25.1655 170.732C26.0951 171.033 27.0389 171.256 27.9965 171.4L28.2945 169.422ZM24.4872 169.945C24.6347 170.829 24.8701 171.678 25.1946 172.49L27.0515 171.747C26.7823 171.074 26.5847 170.364 26.46 169.616L24.4872 169.945ZM25.1968 172.495C25.534 173.324 25.9885 174.066 26.5631 174.712L28.058 173.383C27.643 172.917 27.3059 172.372 27.0493 171.741L25.1968 172.495ZM26.5706 174.721C27.1643 175.374 27.8856 175.885 28.7199 176.259L29.538 174.434C28.9374 174.165 28.4464 173.811 28.0505 173.375L26.5706 174.721ZM28.7256 176.262C29.6092 176.651 30.612 176.829 31.708 176.829V174.829C30.8248 174.829 30.1082 174.685 29.5322 174.432L28.7256 176.262ZM31.708 176.829C32.4659 176.829 33.1978 176.714 33.8983 176.481L33.2658 174.584C32.7788 174.746 32.2613 174.829 31.708 174.829V176.829ZM33.8983 176.481C34.5865 176.252 35.2224 175.927 35.8018 175.507L34.6279 173.888C34.2177 174.185 33.7651 174.417 33.2658 174.584L33.8983 176.481ZM35.8018 175.507C36.3787 175.089 36.8832 174.591 37.3137 174.017L35.7137 172.817C35.402 173.233 35.0406 173.588 34.6279 173.888L35.8018 175.507ZM37.3041 174.03C37.749 173.455 38.1052 172.82 38.3738 172.127L36.509 171.404C36.3076 171.924 36.0453 172.389 35.7233 172.804L37.3041 174.03ZM37.0945 172.704L39.8035 173.705L40.4973 171.83L37.7883 170.828L37.0945 172.704ZM39.2277 172.382C38.8674 173.244 38.3761 173.981 37.7548 174.602L39.169 176.017C39.9826 175.203 40.6169 174.245 41.0731 173.153L39.2277 172.382ZM37.7548 174.602C37.1234 175.234 36.4025 175.761 35.5881 176.185L36.5115 177.959C37.5031 177.443 38.3903 176.795 39.169 176.017L37.7548 174.602ZM35.5927 176.183C34.7817 176.6 33.9111 176.911 32.978 177.116L33.4068 179.07C34.5023 178.829 35.5367 178.46 36.5069 177.962L35.5927 176.183ZM32.9755 177.117C32.0421 177.324 31.119 177.427 30.2051 177.427V179.427C31.2703 179.427 32.3388 179.307 33.4093 179.069L32.9755 177.117ZM30.2051 177.427C28.6853 177.427 27.3015 177.174 26.0434 176.68L25.3121 178.541C26.8248 179.135 28.4593 179.427 30.2051 179.427V177.427ZM26.0506 176.682C24.7808 176.172 23.7012 175.47 22.7994 174.58L21.394 176.003C22.496 177.091 23.8038 177.935 25.3049 178.538L26.0506 176.682ZM22.7994 174.58C21.8975 173.689 21.1849 172.621 20.664 171.364L18.8164 172.13C19.4336 173.619 20.2919 174.914 21.394 176.003L22.7994 174.58ZM20.664 171.364C20.1501 170.124 19.8867 168.753 19.8867 167.238H17.8867C17.8867 168.989 18.1924 170.624 18.8164 172.13L20.664 171.364ZM19.8867 167.238C19.8867 165.724 20.1501 164.353 20.664 163.112L18.8164 162.347C18.1924 163.853 17.8867 165.487 17.8867 167.238H19.8867ZM20.664 163.112C21.1849 161.856 21.8975 160.788 22.7994 159.897L21.394 158.474C20.2919 159.562 19.4336 160.857 18.8164 162.347L20.664 163.112ZM22.7994 159.897C23.6996 159.008 24.7767 158.313 26.0434 157.816L25.3121 155.954C23.8079 156.545 22.4977 157.384 21.394 158.474L22.7994 159.897ZM26.0506 157.813C27.3068 157.308 28.688 157.05 30.2051 157.05V155.05C28.4565 155.05 26.8195 155.348 25.3049 155.957L26.0506 157.813ZM30.2051 157.05C30.9498 157.05 31.7155 157.102 32.5026 157.208L32.7689 155.226C31.8984 155.109 31.0437 155.05 30.2051 155.05V157.05ZM32.5026 157.208C33.2752 157.312 34.0225 157.479 34.7453 157.708L35.3504 155.802C34.5146 155.536 33.6538 155.345 32.7689 155.226L32.5026 157.208ZM34.7591 157.712C35.4724 157.927 36.1426 158.209 36.7715 158.558L37.7402 156.808C36.9837 156.389 36.1819 156.052 35.3366 155.797L34.7591 157.712ZM36.7715 158.558C37.3695 158.889 37.8798 159.295 38.3092 159.777L39.8022 158.446C39.2172 157.79 38.5276 157.244 37.7402 156.808L36.7715 158.558ZM38.3246 159.794C38.7555 160.255 39.0986 160.798 39.3518 161.431L41.2088 160.688C40.8682 159.837 40.3949 159.081 39.7867 158.429L38.3246 159.794ZM39.3572 161.444C39.6072 162.044 39.7441 162.757 39.7441 163.602H41.7441C41.7441 162.541 41.5718 161.559 41.2034 160.675L39.3572 161.444ZM62.8984 178V179H64.8144L63.7188 177.428L62.8984 178ZM56.627 178L55.8072 178.573L56.1058 179H56.627V178ZM51.376 170.485L52.1957 169.913L51.3845 168.752L50.562 169.904L51.376 170.485ZM46.0137 178V179H46.5286L46.8277 178.581L46.0137 178ZM41.6719 178L40.8977 177.367L39.5625 179H41.6719V178ZM49.7432 168.129L50.5173 168.762L50.996 168.176L50.5631 167.556L49.7432 168.129ZM41.6719 156.569V155.569H39.754L40.852 157.142L41.6719 156.569ZM47.9434 156.569L48.763 155.996L48.4645 155.569H47.9434V156.569ZM53.0273 163.843L52.2077 164.416L52.9934 165.54L53.8234 164.448L53.0273 163.843ZM58.5566 156.569V155.569H58.0607L57.7606 155.964L58.5566 156.569ZM62.8984 156.569L63.6577 157.22L65.0727 155.569H62.8984V156.569ZM54.6602 166.181L53.9009 165.53L53.3972 166.118L53.8398 166.752L54.6602 166.181ZM62.8984 177H56.627V179H62.8984V177ZM57.4467 177.427L52.1957 169.913L50.5563 171.058L55.8072 178.573L57.4467 177.427ZM50.562 169.904L45.1997 177.419L46.8277 178.581L52.19 171.066L50.562 169.904ZM46.0137 177H41.6719V179H46.0137V177ZM42.446 178.633L50.5173 168.762L48.969 167.496L40.8977 177.367L42.446 178.633ZM50.5631 167.556L42.4918 155.997L40.852 157.142L48.9233 168.701L50.5631 167.556ZM41.6719 157.569H47.9434V155.569H41.6719V157.569ZM47.1237 157.142L52.2077 164.416L53.847 163.27L48.763 155.996L47.1237 157.142ZM53.8234 164.448L59.3527 157.175L57.7606 155.964L52.2313 163.238L53.8234 164.448ZM58.5566 157.569H62.8984V155.569H58.5566V157.569ZM62.1392 155.919L53.9009 165.53L55.4194 166.831L63.6577 157.22L62.1392 155.919ZM53.8398 166.752L62.0781 178.572L63.7188 177.428L55.4805 165.609L53.8398 166.752ZM72.083 178V179H73.083V178H72.083ZM65.8115 178H64.8115V179H65.8115V178ZM65.8115 146.698V145.698H64.8115V146.698H65.8115ZM68.2236 146.698L69.0839 146.188L68.7934 145.698H68.2236V146.698ZM72.083 153.211H73.083V152.937L72.9433 152.701L72.083 153.211ZM72.083 177H65.8115V179H72.083V177ZM66.8115 178V146.698H64.8115V178H66.8115ZM65.8115 147.698H68.2236V145.698H65.8115V147.698ZM67.3633 147.208L71.2227 153.721L72.9433 152.701L69.0839 146.188L67.3633 147.208ZM71.083 153.211V178H73.083V153.211H71.083ZM98.8945 178V179H99.8945V178H98.8945ZM92.623 178H91.623V179H92.623V178ZM92.623 175.439H93.623V172.379L91.816 174.849L92.623 175.439ZM89.9326 177.703L90.3537 178.61L90.3584 178.608L89.9326 177.703ZM78.8555 175.18L78.104 175.84L78.1081 175.844L78.8555 175.18ZM76.8145 171.617L75.8693 171.944L76.8145 171.617ZM78.8555 159.315L79.6029 159.98L79.6069 159.975L78.8555 159.315ZM88.8564 156.421L88.5402 157.37L88.5449 157.371L88.8564 156.421ZM90.916 157.479L90.3212 158.282L90.3302 158.289L90.3393 158.295L90.916 157.479ZM92.5674 159.111L91.76 159.701L91.7664 159.71L91.773 159.719L92.5674 159.111ZM93.6992 161.227L92.7551 161.556L93.4603 163.576L94.5576 161.74L93.6992 161.227ZM96.4824 156.569V155.569H95.9151L95.624 156.056L96.4824 156.569ZM98.8945 156.569H99.8945V155.569H98.8945V156.569ZM92.4932 165.476L91.4963 165.555L91.4971 165.565L91.4981 165.575L92.4932 165.476ZM91.6396 161.913L90.7184 162.302L90.7237 162.315L90.7293 162.327L91.6396 161.913ZM90.7119 160.447L89.9527 161.098L89.9626 161.11L89.973 161.121L90.7119 160.447ZM85.665 159.445L86.095 160.348L86.1037 160.344L86.1123 160.34L85.665 159.445ZM84.3291 160.466L85.0789 161.127L85.0837 161.122L85.0884 161.117L84.3291 160.466ZM83.4014 161.932L82.4876 161.526L82.4838 161.534L82.4801 161.543L83.4014 161.932ZM82.5479 165.513L81.5528 165.413L81.5519 165.422L81.5512 165.431L82.5479 165.513ZM82.5479 168.982L81.551 169.062L81.5518 169.072L81.5528 169.082L82.5479 168.982ZM83.4014 172.563L82.4801 172.952L82.4838 172.961L82.4876 172.97L83.4014 172.563ZM84.3291 174.048L83.5698 174.699L83.5745 174.704L83.5793 174.709L84.3291 174.048ZM85.665 175.068L85.2178 175.963L85.2264 175.967L85.2351 175.971L85.665 175.068ZM89.209 175.05L89.6738 175.935L89.6818 175.931L89.209 175.05ZM90.5264 173.974L89.7686 173.321L89.7633 173.327L89.7581 173.333L90.5264 173.974ZM92.4746 168.89L93.4669 169.014L93.4672 169.011L92.4746 168.89ZM98.8945 177H92.623V179H98.8945V177ZM93.623 178V175.439H91.623V178H93.623ZM91.816 174.849C91.1643 175.74 90.3947 176.38 89.5068 176.798L90.3584 178.608C91.5734 178.036 92.5974 177.168 93.4301 176.03L91.816 174.849ZM89.5115 176.796C88.616 177.212 87.6172 177.427 86.5 177.427V179.427C87.8815 179.427 89.1711 179.159 90.3537 178.61L89.5115 176.796ZM86.5 177.427C84.9871 177.427 83.6712 177.158 82.5329 176.643L81.7093 178.466C83.1439 179.114 84.7473 179.427 86.5 179.427V177.427ZM82.5329 176.643C81.3675 176.117 80.3953 175.407 79.6029 174.515L78.1081 175.844C79.0969 176.956 80.3018 177.83 81.7093 178.466L82.5329 176.643ZM79.6069 174.52C78.8074 173.609 78.1902 172.537 77.7596 171.291L75.8693 171.944C76.3788 173.419 77.1222 174.721 78.104 175.839L79.6069 174.52ZM77.7596 171.291C77.3288 170.043 77.1094 168.695 77.1094 167.238H75.1094C75.1094 168.899 75.36 170.47 75.8693 171.944L77.7596 171.291ZM77.1094 167.238C77.1094 165.782 77.3288 164.433 77.7596 163.186L75.8693 162.533C75.36 164.007 75.1094 165.578 75.1094 167.238H77.1094ZM77.7596 163.186C78.1899 161.94 78.8061 160.876 79.6029 159.98L78.1081 158.651C77.1236 159.759 76.3791 161.057 75.8693 162.533L77.7596 163.186ZM79.6069 159.975C80.3992 159.073 81.3702 158.359 82.5329 157.833L81.7093 156.011C80.2991 156.648 79.093 157.529 78.104 158.656L79.6069 159.975ZM82.5329 157.833C83.6712 157.319 84.9871 157.05 86.5 157.05V155.05C84.7473 155.05 83.1439 155.362 81.7093 156.011L82.5329 157.833ZM86.5 157.05C87.2277 157.05 87.9059 157.158 88.5402 157.37L89.1727 155.472C88.3226 155.189 87.4298 155.05 86.5 155.05V157.05ZM88.5449 157.371C89.2011 157.586 89.7914 157.89 90.3212 158.282L91.5109 156.675C90.8036 156.151 90.0209 155.75 89.168 155.471L88.5449 157.371ZM90.3393 158.295C90.8787 158.676 91.352 159.143 91.76 159.701L93.3748 158.521C92.8427 157.793 92.2151 157.171 91.4927 156.662L90.3393 158.295ZM91.773 159.719C92.1886 160.262 92.5165 160.873 92.7551 161.556L94.6433 160.897C94.3377 160.022 93.911 159.222 93.3617 158.504L91.773 159.719ZM94.5576 161.74L97.3408 157.082L95.624 156.056L92.8408 160.714L94.5576 161.74ZM96.4824 157.569H98.8945V155.569H96.4824V157.569ZM97.8945 156.569V178H99.8945V156.569H97.8945ZM93.5859 167.238C93.5859 166.645 93.553 166.024 93.4882 165.376L91.4981 165.575C91.557 166.164 91.5859 166.718 91.5859 167.238H93.5859ZM93.49 165.396C93.4367 164.73 93.3369 164.072 93.1906 163.42L91.2391 163.858C91.3649 164.418 91.4506 164.984 91.4963 165.555L93.49 165.396ZM93.1906 163.42C93.04 162.749 92.8269 162.108 92.55 161.499L90.7293 162.327C90.9472 162.806 91.1175 163.316 91.2391 163.858L93.1906 163.42ZM92.5609 161.524C92.2845 160.869 91.9154 160.283 91.4509 159.774L89.973 161.121C90.2753 161.453 90.5248 161.844 90.7184 162.302L92.5609 161.524ZM91.4712 159.796C91.0044 159.252 90.4367 158.826 89.7792 158.52L88.9357 160.333C89.3419 160.522 89.6772 160.777 89.9527 161.098L91.4712 159.796ZM89.7792 158.52C89.0912 158.2 88.3238 158.056 87.502 158.056V160.056C88.0903 160.056 88.5599 160.159 88.9357 160.333L89.7792 158.52ZM87.502 158.056C86.6744 158.056 85.9028 158.208 85.2178 158.551L86.1123 160.34C86.4663 160.163 86.9194 160.056 87.502 160.056V158.056ZM85.2351 158.542C84.5906 158.849 84.0327 159.275 83.5698 159.815L85.0884 161.117C85.3676 160.791 85.7004 160.536 86.095 160.348L85.2351 158.542ZM83.5793 159.804C83.1353 160.307 82.7728 160.884 82.4876 161.526L84.3152 162.338C84.5248 161.866 84.7807 161.465 85.0789 161.127L83.5793 159.804ZM82.4801 161.543C82.2213 162.156 82.0178 162.794 81.869 163.457L83.8204 163.895C83.9438 163.345 84.1114 162.821 84.3226 162.321L82.4801 161.543ZM81.869 163.457C81.7241 164.102 81.6187 164.755 81.5528 165.413L83.5429 165.612C83.6007 165.034 83.6932 164.461 83.8204 163.895L81.869 163.457ZM81.5512 165.431C81.4997 166.061 81.4736 166.664 81.4736 167.238H83.4736C83.4736 166.724 83.497 166.176 83.5445 165.594L81.5512 165.431ZM81.4736 167.238C81.4736 167.813 81.4997 168.421 81.551 169.062L83.5447 168.903C83.497 168.307 83.4736 167.753 83.4736 167.238H81.4736ZM81.5528 169.082C81.6187 169.741 81.7241 170.393 81.869 171.038L83.8204 170.6C83.6932 170.034 83.6007 169.461 83.5429 168.883L81.5528 169.082ZM81.869 171.038C82.0178 171.701 82.2213 172.339 82.4801 172.952L84.3226 172.175C84.1114 171.674 83.9438 171.15 83.8204 170.6L81.869 171.038ZM82.4876 172.97C82.7717 173.609 83.1315 174.187 83.5698 174.699L85.0884 173.397C84.7845 173.043 84.5259 172.631 84.3152 172.157L82.4876 172.97ZM83.5793 174.709C84.0384 175.23 84.5876 175.648 85.2178 175.963L86.1123 174.174C85.7034 173.97 85.362 173.707 85.0789 173.386L83.5793 174.709ZM85.2351 175.971C85.9157 176.295 86.681 176.439 87.502 176.439V174.439C86.9128 174.439 86.4534 174.336 86.095 174.165L85.2351 175.971ZM87.502 176.439C88.2825 176.439 89.0153 176.281 89.6738 175.935L88.7441 174.164C88.413 174.338 88.0078 174.439 87.502 174.439V176.439ZM89.6818 175.931C90.3028 175.598 90.842 175.157 91.2946 174.614L89.7581 173.333C89.4686 173.681 89.1295 173.958 88.7362 174.169L89.6818 175.931ZM91.2841 174.626C91.733 174.105 92.1045 173.517 92.4009 172.867L90.5815 172.037C90.3584 172.526 90.0866 172.952 89.7686 173.321L91.2841 174.626ZM92.4009 172.867C92.6841 172.247 92.9134 171.606 93.0886 170.946L91.1555 170.433C91.0091 170.985 90.8178 171.519 90.5815 172.037L92.4009 172.867ZM93.0886 170.946C93.2604 170.298 93.3868 169.654 93.4669 169.014L91.4823 168.766C91.414 169.313 91.3053 169.868 91.1555 170.433L93.0886 170.946ZM93.4672 169.011C93.5453 168.374 93.5859 167.782 93.5859 167.238H91.5859C91.5859 167.684 91.5524 168.193 91.482 168.768L93.4672 169.011ZM135.317 174.771L134.394 174.388L134.392 174.392L135.317 174.771ZM133.072 179.058L133.91 179.603L133.072 179.058ZM130.141 182.564L129.663 183.443L130.291 183.784L130.818 183.301L130.141 182.564ZM127.784 181.284L126.911 180.797L126.418 181.68L127.307 182.163L127.784 181.284ZM130.697 171.023L129.708 170.88L129.706 170.891L130.697 171.023ZM130.883 162.896L129.893 163.041L129.895 163.053L129.897 163.065L130.883 162.896ZM130.53 161.449L129.584 161.773L129.587 161.781L130.53 161.449ZM129.862 160.206L129.056 160.797L129.067 160.813L129.079 160.827L129.862 160.206ZM128.823 159.334L128.344 160.212L128.36 160.22L128.376 160.228L128.823 159.334ZM125.873 159.464L126.473 160.264L126.477 160.261L125.873 159.464ZM124.166 162.266L123.204 161.991L123.202 162L123.199 162.009L124.166 162.266ZM123.795 164.103L124.785 164.244L124.785 164.241L123.795 164.103ZM123.609 165.847L122.612 165.78L122.611 165.791L122.61 165.802L123.609 165.847ZM123.572 178V179H124.572V178H123.572ZM117.319 178H116.319V179H117.319V178ZM117.338 166.459L118.338 166.479L118.338 166.479L117.338 166.459ZM117.282 164.529L116.284 164.585L116.284 164.594L116.285 164.603L117.282 164.529ZM117.041 162.544L116.055 162.708L116.056 162.719L116.058 162.729L117.041 162.544ZM116.484 160.763L115.582 161.193L115.586 161.201L115.59 161.21L116.484 160.763ZM115.464 159.501L114.853 160.293L114.86 160.298L114.868 160.304L115.464 159.501ZM112.421 159.464L111.793 158.685L111.787 158.691L111.781 158.696L112.421 159.464ZM111.475 160.67L110.589 160.205L110.585 160.214L111.475 160.67ZM110.881 162.321L109.908 162.088L109.907 162.095L109.905 162.102L110.881 162.321ZM110.565 164.158L109.573 164.039L109.571 164.048L109.571 164.057L110.565 164.158ZM110.454 165.902L111.454 165.925L111.454 165.925L110.454 165.902ZM110.436 178V179H111.436V178H110.436ZM104.146 178H103.146V179H104.146V178ZM104.146 156.569V155.569H103.146V156.569H104.146ZM106.558 156.569L107.466 156.151L107.198 155.569H106.558V156.569ZM108.858 161.561L107.95 161.979L109.057 164.38L109.816 161.848L108.858 161.561ZM111.308 157.516L111.963 158.271L111.963 158.271L111.308 157.516ZM119.936 157.089L120.468 156.242L119.936 157.089ZM122.533 160.466L121.606 160.841L122.414 162.836L123.418 160.932L122.533 160.466ZM123.721 158.629L122.947 157.996L122.938 158.006L123.721 158.629ZM125.187 157.237L124.611 156.42L124.602 156.426L125.187 157.237ZM126.986 156.365L127.275 157.323L127.284 157.32L127.292 157.317L126.986 156.365ZM132.887 156.773L132.461 157.679L132.468 157.682L132.475 157.685L132.887 156.773ZM135.429 158.74L136.217 158.125L135.429 158.74ZM136.857 161.746L135.889 161.993L135.889 161.996L136.857 161.746ZM136.303 165.494C136.303 166.888 136.139 168.35 135.806 169.884L137.76 170.308C138.12 168.65 138.303 167.045 138.303 165.494H136.303ZM135.806 169.884C135.472 171.42 135.002 172.922 134.394 174.388L136.241 175.154C136.895 173.578 137.401 171.962 137.76 170.308L135.806 169.884ZM134.392 174.392C133.797 175.844 133.078 177.217 132.234 178.512L133.91 179.603C134.823 178.202 135.601 176.717 136.243 175.151L134.392 174.392ZM132.234 178.512C131.397 179.797 130.473 180.901 129.464 181.828L130.818 183.301C131.961 182.249 132.991 181.015 133.91 179.603L132.234 178.512ZM130.618 181.686L128.262 180.405L127.307 182.163L129.663 183.443L130.618 181.686ZM128.658 181.771C129.045 181.076 129.394 180.305 129.706 179.46L127.829 178.767C127.548 179.53 127.241 180.206 126.911 180.797L128.658 181.771ZM129.706 179.46C130.013 178.628 130.293 177.754 130.548 176.839L128.62 176.304C128.38 177.17 128.116 177.991 127.829 178.767L129.706 179.46ZM130.548 176.839C130.802 175.923 131.024 174.983 131.214 174.019L129.252 173.632C129.072 174.548 128.861 175.438 128.62 176.304L130.548 176.839ZM131.214 174.019C131.404 173.059 131.562 172.104 131.688 171.156L129.706 170.891C129.585 171.798 129.434 172.711 129.252 173.632L131.214 174.019ZM131.687 171.167C131.826 170.204 131.928 169.271 131.992 168.366L129.997 168.226C129.937 169.078 129.84 169.962 129.708 170.88L131.687 171.167ZM131.992 168.366C132.055 167.468 132.087 166.622 132.087 165.828H130.087C130.087 166.568 130.057 167.367 129.997 168.226L131.992 168.366ZM132.087 165.828C132.087 165.376 132.074 164.89 132.049 164.369L130.051 164.467C130.075 164.96 130.087 165.414 130.087 165.828H132.087ZM132.049 164.369C132.022 163.821 131.962 163.274 131.869 162.728L129.897 163.065C129.977 163.533 130.028 164 130.051 164.467L132.049 164.369ZM131.872 162.752C131.789 162.185 131.657 161.639 131.474 161.118L129.587 161.781C129.725 162.174 129.828 162.594 129.893 163.041L131.872 162.752ZM131.476 161.126C131.282 160.557 131.007 160.04 130.646 159.585L129.079 160.827C129.287 161.09 129.457 161.401 129.584 161.773L131.476 161.126ZM130.669 159.615C130.301 159.113 129.83 158.719 129.27 158.44L128.376 160.228C128.658 160.369 128.88 160.557 129.056 160.797L130.669 159.615ZM129.302 158.456C128.715 158.136 128.046 158 127.339 158V160C127.794 160 128.115 160.087 128.344 160.212L129.302 158.456ZM127.339 158C126.577 158 125.87 158.211 125.269 158.667L126.477 160.261C126.692 160.098 126.962 160 127.339 160V158ZM125.273 158.664C124.759 159.05 124.334 159.544 123.991 160.125L125.714 161.141C125.94 160.757 126.196 160.472 126.473 160.264L125.273 158.664ZM123.991 160.125C123.659 160.689 123.398 161.313 123.204 161.991L125.128 162.54C125.28 162.006 125.478 161.542 125.714 161.141L123.991 160.125ZM123.199 162.009C123.028 162.654 122.897 163.306 122.805 163.964L124.785 164.241C124.866 163.663 124.982 163.09 125.133 162.522L123.199 162.009ZM122.805 163.961C122.715 164.59 122.651 165.196 122.612 165.78L124.607 165.913C124.642 165.384 124.701 164.828 124.785 164.244L122.805 163.961ZM122.61 165.802C122.585 166.368 122.572 166.854 122.572 167.257H124.572C124.572 166.893 124.584 166.439 124.608 165.891L122.61 165.802ZM122.572 167.257V178H124.572V167.257H122.572ZM123.572 177H117.319V179H123.572V177ZM118.319 178V168.018H116.319V178H118.319ZM118.319 168.018C118.319 167.594 118.325 167.081 118.338 166.479L116.338 166.439C116.326 167.049 116.319 167.576 116.319 168.018H118.319ZM118.338 166.479C118.351 165.827 118.331 165.152 118.279 164.455L116.285 164.603C116.332 165.242 116.35 165.854 116.338 166.439L118.338 166.479ZM118.281 164.474C118.241 163.762 118.155 163.057 118.024 162.359L116.058 162.729C116.174 163.342 116.249 163.96 116.284 164.585L118.281 164.474ZM118.027 162.38C117.902 161.629 117.69 160.938 117.379 160.315L115.59 161.21C115.798 161.627 115.957 162.123 116.055 162.708L118.027 162.38ZM117.387 160.333C117.074 159.676 116.633 159.124 116.06 158.698L114.868 160.304C115.161 160.521 115.399 160.81 115.582 161.193L117.387 160.333ZM116.075 158.709C115.434 158.215 114.662 158 113.831 158V160C114.311 160 114.628 160.119 114.853 160.293L116.075 158.709ZM113.831 158C113.077 158 112.377 158.214 111.793 158.685L113.049 160.242C113.231 160.095 113.471 160 113.831 160V158ZM111.781 158.696C111.294 159.101 110.901 159.612 110.589 160.205L112.36 161.135C112.568 160.738 112.805 160.445 113.061 160.232L111.781 158.696ZM110.585 160.214C110.295 160.778 110.072 161.405 109.908 162.088L111.853 162.555C111.986 162.001 112.159 161.527 112.364 161.126L110.585 160.214ZM109.905 162.102C109.762 162.741 109.651 163.387 109.573 164.039L111.558 164.277C111.629 163.692 111.728 163.113 111.857 162.54L109.905 162.102ZM109.571 164.057C109.506 164.687 109.467 165.295 109.454 165.88L111.454 165.925C111.466 165.397 111.501 164.842 111.56 164.26L109.571 164.057ZM109.454 165.88C109.442 166.428 109.436 166.888 109.436 167.257H111.436C111.436 166.908 111.442 166.465 111.454 165.925L109.454 165.88ZM109.436 167.257V178H111.436V167.257H109.436ZM110.436 177H104.146V179H110.436V177ZM105.146 178V156.569H103.146V178H105.146ZM104.146 157.569H106.558V155.569H104.146V157.569ZM105.649 156.988L107.95 161.979L109.767 161.142L107.466 156.151L105.649 156.988ZM109.816 161.848C110.294 160.256 111.022 159.086 111.963 158.271L110.653 156.76C109.367 157.875 108.462 159.401 107.901 161.273L109.816 161.848ZM111.963 158.271C112.866 157.487 114.104 157.05 115.779 157.05V155.05C113.744 155.05 112.001 155.589 110.652 156.76L111.963 158.271ZM115.779 157.05C117.314 157.05 118.501 157.368 119.403 157.935L120.468 156.242C119.168 155.425 117.585 155.05 115.779 155.05V157.05ZM119.403 157.935C120.281 158.487 121.031 159.42 121.606 160.841L123.46 160.091C122.774 158.394 121.792 157.076 120.468 156.242L119.403 157.935ZM123.418 160.932C123.75 160.301 124.113 159.742 124.503 159.251L122.938 158.006C122.463 158.604 122.033 159.27 121.649 159.999L123.418 160.932ZM124.495 159.262C124.889 158.78 125.315 158.378 125.771 158.048L124.602 156.426C123.994 156.864 123.443 157.389 122.947 157.996L124.495 159.262ZM125.762 158.055C126.217 157.735 126.719 157.49 127.275 157.323L126.697 155.408C125.942 155.636 125.245 155.973 124.611 156.42L125.762 158.055ZM127.292 157.317C127.835 157.143 128.454 157.05 129.157 157.05V155.05C128.277 155.05 127.449 155.167 126.681 155.413L127.292 157.317ZM129.157 157.05C130.51 157.05 131.6 157.274 132.461 157.679L133.312 155.868C132.12 155.308 130.723 155.05 129.157 155.05V157.05ZM132.475 157.685C133.376 158.093 134.091 158.65 134.64 159.355L136.217 158.125C135.455 157.148 134.475 156.394 133.299 155.862L132.475 157.685ZM134.64 159.355C135.201 160.075 135.621 160.948 135.889 161.993L137.826 161.499C137.5 160.219 136.968 159.088 136.217 158.125L134.64 159.355ZM135.889 161.996C136.162 163.055 136.303 164.219 136.303 165.494H138.303C138.303 164.073 138.146 162.738 137.826 161.496L135.889 161.996ZM163.057 178V179H164.057V178H163.057ZM156.785 178H155.785V179H156.785V178ZM156.785 175.439H157.785V172.379L155.978 174.849L156.785 175.439ZM154.095 177.703L154.516 178.61L154.521 178.608L154.095 177.703ZM143.018 175.18L142.266 175.84L142.27 175.844L143.018 175.18ZM140.977 171.617L140.031 171.944L140.977 171.617ZM143.018 159.315L143.765 159.98L143.769 159.975L143.018 159.315ZM153.019 156.421L152.702 157.37L152.707 157.371L153.019 156.421ZM155.078 157.479L154.483 158.282L154.492 158.289L154.501 158.295L155.078 157.479ZM156.729 159.111L155.922 159.701L155.929 159.71L155.935 159.719L156.729 159.111ZM157.861 161.227L156.917 161.556L157.622 163.576L158.72 161.74L157.861 161.227ZM160.645 156.569V155.569H160.077L159.786 156.056L160.645 156.569ZM163.057 156.569H164.057V155.569H163.057V156.569ZM156.655 165.476L155.658 165.555L155.659 165.565L155.66 165.575L156.655 165.476ZM155.802 161.913L154.881 162.302L154.886 162.315L154.891 162.327L155.802 161.913ZM154.874 160.447L154.115 161.098L154.125 161.11L154.135 161.121L154.874 160.447ZM149.827 159.445L150.257 160.348L150.266 160.344L150.274 160.34L149.827 159.445ZM148.491 160.466L149.241 161.127L149.246 161.122L149.25 161.117L148.491 160.466ZM147.563 161.932L146.65 161.526L146.646 161.534L146.642 161.543L147.563 161.932ZM146.71 165.513L145.715 165.413L145.714 165.422L145.713 165.431L146.71 165.513ZM146.71 168.982L145.713 169.062L145.714 169.072L145.715 169.082L146.71 168.982ZM147.563 172.563L146.642 172.952L146.646 172.961L146.65 172.97L147.563 172.563ZM148.491 174.048L147.732 174.699L147.737 174.704L147.741 174.709L148.491 174.048ZM149.827 175.068L149.38 175.963L149.389 175.967L149.397 175.971L149.827 175.068ZM153.371 175.05L153.836 175.935L153.844 175.931L153.371 175.05ZM154.688 173.974L153.931 173.321L153.925 173.327L153.92 173.333L154.688 173.974ZM156.637 168.89L157.629 169.014L157.629 169.011L156.637 168.89ZM163.057 177H156.785V179H163.057V177ZM157.785 178V175.439H155.785V178H157.785ZM155.978 174.849C155.326 175.74 154.557 176.38 153.669 176.798L154.521 178.608C155.736 178.036 156.759 177.168 157.592 176.03L155.978 174.849ZM153.674 176.796C152.778 177.212 151.779 177.427 150.662 177.427V179.427C152.044 179.427 153.333 179.159 154.516 178.61L153.674 176.796ZM150.662 177.427C149.149 177.427 147.833 177.158 146.695 176.643L145.871 178.466C147.306 179.114 148.909 179.427 150.662 179.427V177.427ZM146.695 176.643C145.53 176.117 144.557 175.407 143.765 174.515L142.27 175.844C143.259 176.956 144.464 177.83 145.871 178.466L146.695 176.643ZM143.769 174.52C142.97 173.609 142.352 172.537 141.922 171.291L140.031 171.944C140.541 173.419 141.284 174.721 142.266 175.839L143.769 174.52ZM141.922 171.291C141.491 170.043 141.271 168.695 141.271 167.238H139.271C139.271 168.899 139.522 170.47 140.031 171.944L141.922 171.291ZM141.271 167.238C141.271 165.782 141.491 164.433 141.922 163.186L140.031 162.533C139.522 164.007 139.271 165.578 139.271 167.238H141.271ZM141.922 163.186C142.352 161.94 142.968 160.876 143.765 159.98L142.27 158.651C141.286 159.759 140.541 161.057 140.031 162.533L141.922 163.186ZM143.769 159.975C144.561 159.073 145.532 158.359 146.695 157.833L145.871 156.011C144.461 156.648 143.255 157.529 142.266 158.656L143.769 159.975ZM146.695 157.833C147.833 157.319 149.149 157.05 150.662 157.05V155.05C148.909 155.05 147.306 155.362 145.871 156.011L146.695 157.833ZM150.662 157.05C151.39 157.05 152.068 157.158 152.702 157.37L153.335 155.472C152.485 155.189 151.592 155.05 150.662 155.05V157.05ZM152.707 157.371C153.363 157.586 153.954 157.89 154.483 158.282L155.673 156.675C154.966 156.151 154.183 155.75 153.33 155.471L152.707 157.371ZM154.501 158.295C155.041 158.676 155.514 159.143 155.922 159.701L157.537 158.521C157.005 157.793 156.377 157.171 155.655 156.662L154.501 158.295ZM155.935 159.719C156.351 160.262 156.679 160.873 156.917 161.556L158.805 160.897C158.5 160.022 158.073 159.222 157.524 158.504L155.935 159.719ZM158.72 161.74L161.503 157.082L159.786 156.056L157.003 160.714L158.72 161.74ZM160.645 157.569H163.057V155.569H160.645V157.569ZM162.057 156.569V178H164.057V156.569H162.057ZM157.748 167.238C157.748 166.645 157.715 166.024 157.65 165.376L155.66 165.575C155.719 166.164 155.748 166.718 155.748 167.238H157.748ZM157.652 165.396C157.599 164.73 157.499 164.072 157.353 163.42L155.401 163.858C155.527 164.418 155.613 164.984 155.658 165.555L157.652 165.396ZM157.353 163.42C157.202 162.749 156.989 162.108 156.712 161.499L154.891 162.327C155.109 162.806 155.28 163.316 155.401 163.858L157.353 163.42ZM156.723 161.524C156.447 160.869 156.078 160.283 155.613 159.774L154.135 161.121C154.437 161.453 154.687 161.844 154.881 162.302L156.723 161.524ZM155.633 159.796C155.167 159.252 154.599 158.826 153.941 158.52L153.098 160.333C153.504 160.522 153.839 160.777 154.115 161.098L155.633 159.796ZM153.941 158.52C153.253 158.2 152.486 158.056 151.664 158.056V160.056C152.252 160.056 152.722 160.159 153.098 160.333L153.941 158.52ZM151.664 158.056C150.836 158.056 150.065 158.208 149.38 158.551L150.274 160.34C150.628 160.163 151.081 160.056 151.664 160.056V158.056ZM149.397 158.542C148.753 158.849 148.195 159.275 147.732 159.815L149.25 161.117C149.53 160.791 149.863 160.536 150.257 160.348L149.397 158.542ZM147.741 159.804C147.297 160.307 146.935 160.884 146.65 161.526L148.477 162.338C148.687 161.866 148.943 161.465 149.241 161.127L147.741 159.804ZM146.642 161.543C146.383 162.156 146.18 162.794 146.031 163.457L147.983 163.895C148.106 163.345 148.274 162.821 148.485 162.321L146.642 161.543ZM146.031 163.457C145.886 164.102 145.781 164.755 145.715 165.413L147.705 165.612C147.763 165.034 147.855 164.461 147.983 163.895L146.031 163.457ZM145.713 165.431C145.662 166.061 145.636 166.664 145.636 167.238H147.636C147.636 166.724 147.659 166.176 147.707 165.594L145.713 165.431ZM145.636 167.238C145.636 167.813 145.662 168.421 145.713 169.062L147.707 168.903C147.659 168.307 147.636 167.753 147.636 167.238H145.636ZM145.715 169.082C145.781 169.741 145.886 170.393 146.031 171.038L147.983 170.6C147.855 170.034 147.763 169.461 147.705 168.883L145.715 169.082ZM146.031 171.038C146.18 171.701 146.383 172.339 146.642 172.952L148.485 172.175C148.274 171.674 148.106 171.15 147.983 170.6L146.031 171.038ZM146.65 172.97C146.934 173.609 147.294 174.187 147.732 174.699L149.25 173.397C148.947 173.043 148.688 172.631 148.477 172.157L146.65 172.97ZM147.741 174.709C148.2 175.23 148.75 175.648 149.38 175.963L150.274 174.174C149.866 173.97 149.524 173.707 149.241 173.386L147.741 174.709ZM149.397 175.971C150.078 176.295 150.843 176.439 151.664 176.439V174.439C151.075 174.439 150.616 174.336 150.257 174.165L149.397 175.971ZM151.664 176.439C152.445 176.439 153.177 176.281 153.836 175.935L152.906 174.164C152.575 174.338 152.17 174.439 151.664 174.439V176.439ZM153.844 175.931C154.465 175.598 155.004 175.157 155.457 174.614L153.92 173.333C153.631 173.681 153.292 173.958 152.898 174.169L153.844 175.931ZM155.446 174.626C155.895 174.105 156.267 173.517 156.563 172.867L154.744 172.037C154.521 172.526 154.249 172.952 153.931 173.321L155.446 174.626ZM156.563 172.867C156.846 172.247 157.076 171.606 157.251 170.946L155.318 170.433C155.171 170.985 154.98 171.519 154.744 172.037L156.563 172.867ZM157.251 170.946C157.423 170.298 157.549 169.654 157.629 169.014L155.644 168.766C155.576 169.313 155.467 169.868 155.318 170.433L157.251 170.946ZM157.629 169.011C157.707 168.374 157.748 167.782 157.748 167.238H155.748C155.748 167.684 155.715 168.193 155.644 168.768L157.629 169.011Z"
        fill="white" />
</svg>
